<?xml version="1.0" encoding="utf-8"?>
<!-- Generator: Adobe Illustrator 15.1.0, SVG Export Plug-In . SVG Version: 6.00 Build 0)  -->
<!DOCTYPE svg PUBLIC "-//W3C//DTD SVG 1.1//EN" "http://www.w3.org/Graphics/SVG/1.1/DTD/svg11.dtd">
<svg version="1.1" id="Calque_1" xmlns="http://www.w3.org/2000/svg" xmlns:xlink="http://www.w3.org/1999/xlink" x="0px" y="0px"
	 width="1000px" height="500px" viewBox="0 0 1000 500" enable-background="new 0 0 1000 500" xml:space="preserve">
<g>
	<g>
		<g>
			<polygon fill="none" points="839.236,35.687 838.943,31.454 835.645,27.368 829.836,23.843 821.93,20.831 812.303,18.892 
				801.68,18.026 790.764,18.173 780.426,19.463 771.023,21.688 763.699,24.848 758.602,28.657 756.012,32.744 756.15,70.162 
				756.582,74.395 759.742,78.49 766.211,82.507 766.35,91.416 766.643,94.646 769.076,97.804 773.318,100.462 777.699,102.185 
				777.699,105.848 778.85,461.871 779.57,467.109 781.5,471.922 784.66,476.018 788.902,479.246 793.707,481.256 798.953,481.975 
				804.053,481.256 809.006,479.246 813.092,476.018 816.398,471.922 818.416,467.109 819.064,462.52 817.982,102.047 
				823.652,99.745 827.455,96.801 829.256,93.71 829.256,82.083 831.844,81.07 836.936,77.27 839.385,72.958 			"/>
		</g>
		<g>
			<path fill="#FFFFFF" d="M798.953,484.025c-0.092,0-0.186-0.008-0.275-0.025l-5.248-0.719c-0.178-0.018-0.35-0.068-0.51-0.139
				l-4.807-2.008c-0.162-0.068-0.316-0.156-0.453-0.26l-4.242-3.229c-0.143-0.105-0.268-0.234-0.381-0.373l-3.16-4.096
				c-0.113-0.154-0.209-0.32-0.277-0.492l-1.93-4.814l-0.867-6.717l-1.15-358.959c-0.006-1.135,0.908-2.052,2.039-2.062
				c0.004,0,0.008,0,0.008,0c1.131,0,2.043,0.918,2.047,2.045l1.152,359.693l0.701,4.961l1.688,4.053l2.828,3.67l3.818,2.9
				l4.314,1.811l4.701,0.639l4.816-0.674l4.188-1.766l3.869-3.057l2.797-3.533l1.801-4.293l0.615-4.961
				c0.133-1.127,1.164-1.863,2.281-1.785c1.125,0.141,1.922,1.162,1.779,2.287l-0.65,5.238c-0.021,0.189-0.068,0.371-0.143,0.535
				l-2.018,4.814c-0.072,0.182-0.172,0.346-0.295,0.502l-3.307,4.096l-4.41,3.549c-0.152,0.111-0.32,0.215-0.498,0.285l-4.951,2.01
				L799.238,484C799.145,484.018,799.049,484.025,798.953,484.025z"/>
		</g>
		<g>
			<path fill="#FFFFFF" d="M819.064,464.574c-1.129,0-2.043-0.92-2.047-2.045l-1.082-360.473c-0.006-1.134,0.908-2.052,2.043-2.061
				h0.004c1.129,0,2.043,0.918,2.047,2.042l1.084,360.476c0.004,1.133-0.91,2.051-2.045,2.061H819.064z"/>
		</g>
		<g>
			<path fill="#FFFFFF" d="M794.76,106.973l-8.195-0.727l-7.545-1.472l-6.424-2.398l-4.605-2.841
				c-0.209-0.12-0.391-0.285-0.537-0.483l-2.434-3.16c-0.238-0.303-0.381-0.676-0.414-1.064l-0.295-3.23l-0.146-9.055
				c-0.018-1.135,0.883-2.061,2.016-2.087c0.01,0,0.021,0,0.031,0c1.117,0,2.029,0.899,2.047,2.018l0.369,11.394l1.848,2.396
				l3.932,2.468l5.73,2.122l7.004,1.342l7.762,0.683l8.098-0.163l7.645-0.84l6.818-1.81l5.156-2.112l3.268-2.529l1.32-2.268V82.507
				c0-1.134,0.918-2.052,2.049-2.052c1.129,0,2.047,0.918,2.047,2.052V93.71c0,0.363-0.096,0.718-0.277,1.03l-1.801,3.091
				c-0.135,0.225-0.307,0.423-0.516,0.589l-3.801,2.943c-0.146,0.112-0.311,0.207-0.484,0.276l-5.67,2.303l-7.367,1.947l-8.121,0.91
				L794.76,106.973z"/>
		</g>
		<g>
			<path fill="#FFFFFF" d="M793.732,89.953l-10.812-0.874l-9.883-2.043l-8.256-3.031l-6.125-3.773
				c-0.203-0.131-0.385-0.295-0.535-0.485l-3.16-4.095c-0.23-0.303-0.377-0.667-0.416-1.048l-0.434-4.234l-0.146-37.591
				c-0.004-0.233,0.031-0.476,0.113-0.701c0.051-0.163,0.129-0.311,0.215-0.45l2.576-4.069c0.133-0.207,0.309-0.389,0.506-0.545
				l5.1-3.809l7.74-3.395l9.74-2.337l10.553-1.334l11.146-0.164l10.814,0.874l9.865,1.975l8.229,3.108l6.143,3.688
				c0.203,0.122,0.385,0.277,0.531,0.459l3.301,4.087c0.262,0.328,0.418,0.727,0.449,1.15l0.295,4.208
				c0.004,0.052,0.004,0.104,0.004,0.155l0.146,37.271c0,0.354-0.09,0.709-0.268,1.021l-2.451,4.312
				c-0.139,0.242-0.328,0.458-0.553,0.633l-5.092,3.799c-0.139,0.097-0.289,0.182-0.451,0.251l-7.539,3.091l-9.473,2.39
				l-10.721,1.343L793.732,89.953z M761.143,76.949l5.436,3.395l7.59,2.762l9.336,1.921l10.367,0.832l10.736-0.156l10.25-1.271
				l8.947-2.252l7.021-2.899l4.541-3.395l1.965-3.463l-0.117-30.206l-4.324,3.108l-7.959,3.323l-9.434,2.528l-10.77,1.342
				l-11.135,0.165l-10.842-1.022l-9.854-2.034l-8.232-2.883l-6.178-3.947c-0.143-0.096-0.277-0.199-0.393-0.329l0.104,27.687
				l0.363,3.454L761.143,76.949z M760.998,39.54l5.463,3.559l7.537,2.589l9.367,1.931l10.398,0.979l10.688-0.165l10.268-1.272
				l8.908-2.39l7.295-3.004l4.307-3.16l1.922-3.394l-0.207-2.97l-2.668-3.307l-5.502-3.342l-7.574-2.85L811.9,20.9l-10.385-0.831
				l-10.727,0.156l-10.107,1.272l-9.186,2.182l-6.986,3.048l-4.377,3.333l-2.012,3.186l0.303,3.074L760.998,39.54z"/>
		</g>
		<g>
			<polyline fill="#FFFFFF" points="823.221,40.137 826.891,37.843 828.605,35.332 828.172,32.891 825.592,30.31 821.213,28.224 
				815.107,26.355 808,25.211 800.096,24.563 791.984,24.701 784.375,25.35 777.553,26.649 772.166,28.51 768.506,30.736 
				766.783,33.177 767.215,35.687 769.656,38.138 775.189,36.267 781.934,35.038 789.621,34.319 797.662,34.319 805.629,34.9 
				812.736,36.12 818.771,37.843 823.221,40.137 			"/>
		</g>
		<g>
			<path fill="#FFFFFF" d="M823.221,42.189c-0.32,0-0.645-0.078-0.939-0.233l-4.449-2.294l-5.658-1.576l-6.893-1.169l-7.766-0.554
				l-7.895,0.009l-7.498,0.71l-6.566,1.203l-5.246,1.792c-0.723,0.242-1.555,0.052-2.104-0.493l-2.441-2.451
				c-0.299-0.302-0.498-0.684-0.568-1.099l-0.432-2.511c-0.096-0.537,0.029-1.082,0.342-1.523l1.723-2.441
				c0.164-0.234,0.373-0.424,0.609-0.571l3.662-2.226l5.779-2.051l7.111-1.369l7.818-0.684l8.25-0.147l8.109,0.658l7.262,1.16
				l6.383,1.939l4.656,2.19c0.213,0.104,0.404,0.242,0.572,0.406l2.58,2.58c0.293,0.295,0.494,0.676,0.566,1.092l0.434,2.441
				c0.09,0.527-0.027,1.064-0.324,1.506l-1.715,2.511c-0.16,0.233-0.367,0.433-0.605,0.589l-3.672,2.294
				C823.973,42.077,823.598,42.189,823.221,42.189z M797.662,32.267l8.113,0.589l7.309,1.247l6.25,1.775l3.783,1.913l2.324-1.454
				l1.004-1.473l-0.178-0.979l-1.873-1.879l-4.061-1.931l-5.828-1.765l-6.83-1.074l-7.748-0.633l-7.908,0.147l-7.473,0.642
				l-6.615,1.263l-5.094,1.793l-2.895,1.801l-1.002,1.411l0.182,1.039l1.082,1.09l4.33-1.463l7.029-1.307l7.865-0.744
				L797.662,32.267z"/>
		</g>
	</g>
	<g>
		<g>
			<polygon fill="none" points="601.082,35.687 600.787,31.454 597.488,27.368 591.676,23.843 583.775,20.831 574.148,18.892 
				563.52,18.026 552.607,18.173 542.271,19.463 532.865,21.688 525.541,24.848 520.441,28.657 517.852,32.744 517.996,70.162 
				518.428,74.395 521.588,78.49 528.051,82.507 528.189,91.416 528.484,94.646 530.92,97.804 535.158,100.462 539.539,102.185 
				539.539,105.848 540.691,461.871 541.41,467.109 543.34,471.922 546.504,476.018 550.742,479.246 555.547,481.256 
				560.799,481.975 565.893,481.256 570.85,479.246 574.936,476.018 578.242,471.922 580.256,467.109 580.904,462.52 
				579.822,102.047 585.498,99.745 589.299,96.801 591.1,93.71 591.1,82.083 593.688,81.07 598.777,77.27 601.225,72.958 			"/>
		</g>
		<g>
			<path fill="#FFFFFF" d="M560.799,484.025c-0.092,0-0.188-0.008-0.277-0.025l-5.252-0.719c-0.178-0.018-0.35-0.068-0.51-0.139
				l-4.805-2.008c-0.166-0.068-0.316-0.156-0.455-0.26l-4.238-3.229c-0.143-0.105-0.268-0.234-0.377-0.373l-3.164-4.096
				c-0.117-0.154-0.211-0.32-0.281-0.492l-1.932-4.814l-0.863-6.717l-1.152-358.959c-0.004-1.135,0.908-2.052,2.039-2.062
				c0.004,0,0.008,0,0.008,0c1.129,0,2.043,0.918,2.049,2.045l1.15,359.693l0.701,4.961l1.688,4.053l2.832,3.67l3.814,2.9
				l4.314,1.811l4.705,0.639l4.814-0.674l4.189-1.766l3.871-3.057l2.795-3.533l1.793-4.293l0.619-4.961
				c0.135-1.127,1.174-1.863,2.281-1.785c1.125,0.141,1.922,1.162,1.779,2.287l-0.65,5.238c-0.021,0.182-0.068,0.363-0.143,0.535
				l-2.012,4.814c-0.074,0.182-0.174,0.346-0.295,0.502l-3.307,4.096l-4.412,3.549c-0.15,0.111-0.32,0.215-0.498,0.285l-4.955,2.01
				l-5.58,0.848C560.988,484.018,560.893,484.025,560.799,484.025z"/>
		</g>
		<g>
			<path fill="#FFFFFF" d="M580.904,464.574c-1.129,0-2.043-0.92-2.047-2.045l-1.082-360.473c-0.004-1.134,0.908-2.052,2.043-2.061
				h0.004c1.129,0,2.043,0.918,2.049,2.042l1.082,360.476c0.004,1.133-0.908,2.051-2.043,2.061H580.904z"/>
		</g>
		<g>
			<path fill="#FFFFFF" d="M556.6,106.973l-8.191-0.727l-7.545-1.472l-6.428-2.398l-4.602-2.841
				c-0.207-0.12-0.385-0.285-0.537-0.483l-2.436-3.16c-0.234-0.303-0.381-0.676-0.416-1.064l-0.295-3.23l-0.146-9.055
				c-0.018-1.135,0.883-2.061,2.018-2.087c0.008,0,0.021,0,0.029,0c1.117,0,2.031,0.899,2.047,2.018l0.369,11.394l1.852,2.396
				l3.926,2.468l5.736,2.122l7.004,1.342l7.758,0.683l8.104-0.163l7.645-0.84l6.814-1.81l5.158-2.112l3.27-2.529l1.32-2.268V82.507
				c0-1.134,0.916-2.052,2.047-2.052c1.129,0,2.047,0.918,2.047,2.052V93.71c0,0.363-0.096,0.718-0.277,1.03l-1.801,3.091
				c-0.133,0.225-0.307,0.423-0.516,0.589l-3.799,2.943c-0.148,0.112-0.312,0.207-0.484,0.276l-5.676,2.303l-7.363,1.947
				l-8.121,0.91L556.6,106.973z"/>
		</g>
		<g>
			<path fill="#FFFFFF" d="M555.572,89.953l-10.809-0.874l-9.883-2.043l-8.258-3.031l-6.121-3.773
				c-0.203-0.131-0.385-0.295-0.537-0.485l-3.16-4.095c-0.23-0.303-0.377-0.667-0.416-1.048l-0.432-4.234l-0.152-37.591
				c-0.004-0.233,0.031-0.467,0.109-0.692v-0.009l0,0c0.055-0.155,0.129-0.311,0.219-0.45l2.576-4.069
				c0.135-0.207,0.309-0.389,0.508-0.545l5.1-3.809l7.738-3.395l9.744-2.337l10.553-1.334l11.143-0.164l10.818,0.874l9.865,1.975
				l8.229,3.108l6.143,3.688c0.203,0.122,0.385,0.277,0.533,0.459l3.297,4.087c0.266,0.328,0.42,0.727,0.451,1.15l0.295,4.216
				c0,0.019,0,0.035,0,0.053c0,0,0,0,0.004,0c0,0,0,0,0,0.009c0,0.034,0,0.069,0,0.104l0.143,37.253c0,0.354-0.09,0.709-0.27,1.021
				l-2.445,4.312c-0.139,0.242-0.328,0.458-0.553,0.633l-5.092,3.799c-0.137,0.097-0.289,0.182-0.449,0.251l-7.545,3.091
				l-9.471,2.39l-10.723,1.343L555.572,89.953z M522.986,76.949l5.432,3.395l7.592,2.762l9.34,1.921l10.363,0.832l10.734-0.156
				l10.25-1.271l8.949-2.252l7.023-2.899l4.537-3.395l1.965-3.463l-0.111-30.206l-4.33,3.108l-7.951,3.323l-9.445,2.528
				l-10.762,1.342l-11.139,0.165l-10.842-1.022l-9.854-2.034l-8.229-2.883l-6.182-3.947c-0.143-0.087-0.273-0.199-0.391-0.329
				l0.105,27.687l0.363,3.454L522.986,76.949z M522.838,39.548l5.469,3.55l7.531,2.589l9.367,1.931l10.398,0.979l10.691-0.165
				l10.264-1.272l8.918-2.39l7.281-3.004l4.316-3.16l1.92-3.394l-0.207-2.97l-2.666-3.307l-5.506-3.342l-7.572-2.85l-9.297-1.844
				l-10.389-0.831l-10.725,0.156l-10.107,1.272l-9.189,2.182l-6.986,3.048l-4.377,3.333l-2.012,3.186l0.307,3.074L522.838,39.548z"
				/>
		</g>
		<g>
			<polyline fill="#FFFFFF" points="585.061,40.137 588.73,37.843 590.449,35.332 590.018,32.891 587.438,30.31 583.057,28.224 
				576.949,26.355 569.84,25.211 561.941,24.563 553.828,24.701 546.213,25.35 539.396,26.649 534.008,28.51 530.346,30.736 
				528.625,33.177 529.059,35.687 531.496,38.138 537.027,36.267 543.777,35.038 551.461,34.319 559.504,34.319 567.473,34.9 
				574.582,36.12 580.609,37.843 585.061,40.137 			"/>
		</g>
		<g>
			<path fill="#FFFFFF" d="M585.061,42.189c-0.32,0-0.645-0.078-0.939-0.233l-4.451-2.294l-5.652-1.576l-6.891-1.169l-7.771-0.554
				l-7.895,0.009l-7.492,0.71l-6.572,1.203l-5.246,1.792c-0.729,0.242-1.555,0.052-2.104-0.493l-2.438-2.451
				c-0.299-0.302-0.498-0.684-0.566-1.099l-0.434-2.511c-0.092-0.537,0.031-1.082,0.342-1.523l1.719-2.441
				c0.164-0.234,0.371-0.424,0.609-0.571l3.664-2.226l5.787-2.051l7.098-1.369l7.826-0.684l8.252-0.147l8.104,0.658l7.264,1.16
				l6.385,1.939l4.658,2.19c0.211,0.104,0.402,0.242,0.57,0.406l2.58,2.58c0.295,0.295,0.494,0.676,0.568,1.092l0.432,2.441
				c0.092,0.527-0.025,1.064-0.328,1.515l-1.719,2.511c-0.156,0.233-0.363,0.424-0.602,0.58l-3.672,2.294
				C585.814,42.077,585.438,42.189,585.061,42.189z M559.504,32.267l8.115,0.589l7.307,1.247l6.248,1.775l3.783,1.913l2.324-1.454
				l1.004-1.473l-0.172-0.979l-1.875-1.879l-4.061-1.931l-5.83-1.765l-6.832-1.074l-7.744-0.633l-7.908,0.147l-7.477,0.642
				l-6.605,1.263l-5.107,1.793l-2.893,1.801l-0.994,1.411l0.182,1.039l1.082,1.09l4.324-1.463l7.033-1.307l7.861-0.744
				L559.504,32.267z"/>
		</g>
	</g>
	<g>
		<g>
			<polygon fill="none" points="637.074,464.312 637.369,468.545 640.668,472.633 646.48,476.156 654.381,479.168 664.008,481.109 
				674.637,481.975 685.549,481.828 695.885,480.537 705.291,478.311 712.615,475.152 717.715,471.342 720.305,467.256 
				720.162,429.84 719.729,425.605 716.568,421.51 710.105,417.494 709.967,408.584 709.674,405.355 707.234,402.195 
				702.998,399.537 698.617,397.814 698.617,394.152 697.465,38.128 696.746,32.891 694.816,28.078 691.652,23.982 687.414,20.753 
				682.609,18.745 677.357,18.026 672.264,18.745 667.307,20.753 663.221,23.982 659.914,28.078 657.9,32.891 657.252,37.479 
				658.334,397.953 652.658,400.256 648.857,403.199 647.057,406.291 647.057,417.918 644.469,418.932 639.379,422.73 
				636.932,427.043 			"/>
		</g>
		<g>
			<path fill="#FFFFFF" d="M698.617,399.865c-1.131,0-2.043-0.918-2.047-2.043l-1.152-359.694l-0.701-4.961l-1.688-4.051
				l-2.832-3.671l-3.814-2.901l-4.314-1.809l-4.705-0.641l-4.812,0.676l-4.191,1.766l-3.871,3.057l-2.795,3.531l-1.793,4.295
				l-0.619,4.961c-0.139,1.125-1.193,1.922-2.281,1.782c-1.125-0.138-1.922-1.159-1.779-2.284l0.65-5.238
				c0.021-0.182,0.068-0.363,0.143-0.537l2.014-4.813c0.072-0.182,0.172-0.347,0.293-0.503l3.309-4.095l4.41-3.55
				c0.15-0.112,0.32-0.216,0.498-0.285l4.955-2.009l5.58-0.848c0.188-0.034,0.377-0.034,0.564,0l5.248,0.718
				c0.18,0.019,0.352,0.07,0.512,0.139l4.807,2.01c0.162,0.068,0.314,0.154,0.453,0.26l4.238,3.229
				c0.143,0.104,0.27,0.233,0.377,0.373l3.164,4.094c0.117,0.156,0.211,0.32,0.281,0.494l1.93,4.813l0.867,6.718l1.15,358.958
				c0.006,1.135-0.908,2.053-2.039,2.061C698.621,399.865,698.617,399.865,698.617,399.865z"/>
		</g>
		<g>
			<path fill="#FFFFFF" d="M658.334,400.006c-1.129,0-2.043-0.918-2.047-2.045l-1.084-360.473c-0.004-1.134,0.91-2.051,2.043-2.061
				h0.006c1.129,0,2.043,0.918,2.047,2.044l1.082,360.474c0.006,1.133-0.908,2.051-2.043,2.061H658.334z"/>
		</g>
		<g>
			<path fill="#FFFFFF" d="M647.057,419.545c-1.129,0-2.047-0.918-2.047-2.051v-11.203c0-0.365,0.096-0.719,0.277-1.031l1.801-3.09
				c0.135-0.225,0.307-0.426,0.514-0.59l3.803-2.943c0.146-0.111,0.311-0.207,0.484-0.277l5.674-2.303l7.363-1.947l8.121-0.908
				l8.51-0.176l8.191,0.729l7.543,1.473l6.43,2.396l4.602,2.84c0.207,0.123,0.385,0.285,0.537,0.486l2.438,3.16
				c0.232,0.303,0.379,0.674,0.414,1.064l0.295,3.229l0.146,9.057c0.018,1.135-0.883,2.061-2.018,2.086c-0.008,0-0.02,0-0.029,0
				c-1.117,0-2.031-0.9-2.047-2.018l-0.369-11.393l-1.852-2.398l-3.928-2.469l-5.734-2.119l-7.004-1.344l-7.758-0.684l-8.104,0.164
				l-7.645,0.842l-6.812,1.809l-5.16,2.113l-3.27,2.527l-1.318,2.268v10.65C649.105,418.627,648.188,419.545,647.057,419.545z"/>
		</g>
		<g>
			<path fill="#FFFFFF" d="M674.662,484.025l-10.818-0.873l-9.865-1.975l-8.229-3.107l-6.143-3.688
				c-0.203-0.121-0.385-0.279-0.533-0.461l-3.297-4.086c-0.266-0.328-0.42-0.727-0.451-1.152l-0.295-4.215c0-0.018,0-0.035,0-0.045
				c-0.004-0.041-0.004-0.076-0.004-0.119l-0.143-37.254c0-0.355,0.09-0.709,0.268-1.021l2.447-4.311
				c0.137-0.244,0.328-0.461,0.555-0.633l5.088-3.801c0.141-0.096,0.291-0.182,0.451-0.252l7.545-3.09l9.471-2.391l10.723-1.34
				l11.152-0.166l10.809,0.875l9.883,2.043l8.26,3.029l6.119,3.775c0.203,0.131,0.385,0.295,0.537,0.484l3.16,4.096
				c0.23,0.303,0.377,0.666,0.416,1.047l0.432,4.234l0.152,37.59c0.004,0.227-0.031,0.461-0.104,0.686
				c-0.057,0.164-0.135,0.32-0.225,0.467l-2.576,4.068c-0.135,0.209-0.309,0.391-0.506,0.545l-5.1,3.811l-7.74,3.393l-9.744,2.34
				l-10.553,1.332L674.662,484.025z M642.035,471.066l5.508,3.342l7.57,2.848l9.297,1.844l10.391,0.832l10.721-0.156l10.109-1.273
				l9.189-2.18l6.986-3.049l4.377-3.334l2.012-3.186l-0.307-3.072l-2.57-3.229l-5.469-3.551l-7.531-2.588l-9.367-1.932
				l-10.398-0.979l-10.691,0.164l-10.264,1.273l-8.918,2.391l-7.281,3.004l-4.314,3.158l-1.922,3.393l0.207,2.973L642.035,471.066z
				 M638.984,427.578l0.111,30.207l4.33-3.107l7.951-3.326l9.445-2.527l10.762-1.342l11.139-0.164l10.842,1.021l9.854,2.035
				l8.229,2.881l6.182,3.949c0.143,0.088,0.273,0.197,0.391,0.328l-0.104-27.686l-0.365-3.455l-2.58-3.342l-5.432-3.393
				l-7.594-2.762l-9.338-1.924l-10.363-0.83l-10.734,0.156l-10.25,1.271l-8.947,2.252l-7.025,2.9l-4.537,3.393L638.984,427.578z"/>
		</g>
		<g>
			<polyline fill="#FFFFFF" points="653.096,459.863 649.426,462.156 647.705,464.668 648.139,467.109 650.719,469.689 
				655.1,471.775 661.207,473.645 668.316,474.787 676.217,475.438 684.328,475.299 691.941,474.65 698.76,473.35 704.15,471.49 
				707.811,469.266 709.529,466.824 709.098,464.312 706.66,461.863 701.127,463.732 694.379,464.963 686.695,465.68 
				678.652,465.68 670.684,465.102 663.574,463.879 657.545,462.156 653.096,459.863 			"/>
		</g>
		<g>
			<path fill="#FFFFFF" d="M676.217,477.49c-0.057,0-0.113-0.01-0.17-0.01l-7.9-0.648l-7.262-1.162l-6.387-1.938l-4.656-2.189
				c-0.213-0.104-0.404-0.244-0.572-0.408l-2.58-2.58c-0.295-0.295-0.494-0.674-0.568-1.09l-0.432-2.441
				c-0.092-0.527,0.025-1.066,0.328-1.516l1.719-2.51c0.156-0.234,0.363-0.426,0.602-0.582l3.672-2.293
				c0.619-0.363,1.385-0.416,2.025-0.078l4.449,2.295l5.654,1.576l6.891,1.168l7.771,0.555l7.895-0.01l7.492-0.709l6.572-1.205
				l5.246-1.791c0.719-0.242,1.555-0.061,2.104,0.492l2.438,2.451c0.299,0.303,0.498,0.684,0.568,1.1l0.432,2.512
				c0.092,0.535-0.031,1.08-0.342,1.521l-1.719,2.443c-0.164,0.232-0.373,0.424-0.609,0.57l-3.662,2.227l-5.787,2.051l-7.1,1.367
				l-7.826,0.684l-8.252,0.148C676.236,477.49,676.229,477.49,676.217,477.49z M651.918,467.992l4.061,1.932l5.832,1.766l6.83,1.074
				l7.641,0.623l8.012-0.141l7.477-0.639l6.605-1.266l5.107-1.791l2.891-1.801l0.996-1.412l-0.182-1.037l-1.082-1.092l-4.324,1.463
				l-7.035,1.309l-7.859,0.744l-8.234,0.008l-8.115-0.59l-7.307-1.246l-6.248-1.773l-3.783-1.914l-2.324,1.455l-1.004,1.471
				l0.172,0.98L651.918,467.992z"/>
		</g>
	</g>
	<g>
		<g>
			<polygon fill="none" points="875.23,464.312 875.525,468.545 878.822,472.633 884.637,476.156 892.537,479.168 902.164,481.109 
				912.791,481.975 923.705,481.828 934.041,480.537 943.447,478.311 950.771,475.152 955.871,471.342 958.459,467.256 
				958.316,429.84 957.885,425.605 954.725,421.51 948.262,417.494 948.123,408.584 947.828,405.355 945.393,402.195 
				941.154,399.537 936.773,397.814 936.773,394.152 935.621,38.128 934.902,32.891 932.973,28.078 929.809,23.982 925.57,20.753 
				920.764,18.745 915.514,18.026 910.42,18.745 905.463,20.753 901.377,23.982 898.068,28.078 896.057,32.891 895.406,37.479 
				896.49,397.953 890.814,400.256 887.014,403.199 885.213,406.291 885.213,417.918 882.625,418.932 877.533,422.73 
				875.088,427.043 			"/>
		</g>
		<g>
			<path fill="#FFFFFF" d="M936.773,399.865c-1.131,0-2.045-0.918-2.049-2.043l-1.15-359.694l-0.703-4.961l-1.688-4.051l-2.83-3.671
				l-3.814-2.901l-4.314-1.809l-4.707-0.641l-4.812,0.676l-4.191,1.766l-3.869,3.057l-2.797,3.531l-1.793,4.295l-0.617,4.961
				c-0.139,1.125-1.195,1.922-2.281,1.782c-1.125-0.138-1.922-1.159-1.779-2.284l0.648-5.238c0.023-0.182,0.07-0.363,0.143-0.537
				l2.014-4.813c0.072-0.182,0.174-0.347,0.295-0.503l3.307-4.095l4.41-3.55c0.152-0.112,0.32-0.216,0.498-0.285l4.957-2.009
				l5.58-0.848c0.186-0.034,0.377-0.034,0.562,0l5.252,0.718c0.176,0.019,0.35,0.07,0.51,0.139l4.805,2.01
				c0.166,0.068,0.316,0.154,0.455,0.26l4.238,3.229c0.143,0.104,0.268,0.233,0.377,0.373l3.164,4.094
				c0.115,0.156,0.211,0.32,0.281,0.494l1.93,4.813l0.867,6.718l1.15,358.958c0.004,1.135-0.91,2.053-2.039,2.061
				C936.777,399.865,936.773,399.865,936.773,399.865z"/>
		</g>
		<g>
			<path fill="#FFFFFF" d="M896.49,400.006c-1.131,0-2.045-0.918-2.049-2.045l-1.082-360.473c-0.004-1.134,0.91-2.051,2.043-2.061
				h0.004c1.131,0,2.045,0.918,2.049,2.044l1.082,360.474c0.004,1.133-0.91,2.051-2.045,2.061H896.49z"/>
		</g>
		<g>
			<path fill="#FFFFFF" d="M885.213,419.545c-1.131,0-2.047-0.918-2.047-2.051v-11.203c0-0.365,0.094-0.719,0.275-1.031l1.801-3.09
				c0.135-0.225,0.309-0.426,0.516-0.59l3.801-2.943c0.146-0.111,0.312-0.207,0.484-0.277l5.676-2.303l7.363-1.947l8.121-0.908
				l8.51-0.176l8.189,0.729l7.547,1.473l6.426,2.396l4.604,2.84c0.207,0.123,0.385,0.285,0.535,0.486l2.438,3.16
				c0.234,0.303,0.381,0.674,0.416,1.064l0.295,3.229l0.146,9.057c0.018,1.135-0.883,2.061-2.016,2.086c-0.01,0-0.023,0-0.031,0
				c-1.117,0-2.031-0.9-2.049-2.018l-0.367-11.393l-1.854-2.398l-3.926-2.469l-5.736-2.119l-7.002-1.344l-7.758-0.684l-8.104,0.164
				l-7.645,0.842l-6.812,1.809l-5.162,2.113l-3.266,2.527l-1.322,2.268v10.65C887.26,418.627,886.342,419.545,885.213,419.545z"/>
		</g>
		<g>
			<path fill="#FFFFFF" d="M912.816,484.025L902,483.152l-9.865-1.975l-8.229-3.107l-6.143-3.688
				c-0.205-0.121-0.387-0.279-0.533-0.461l-3.299-4.086c-0.264-0.328-0.42-0.727-0.449-1.152l-0.295-4.215c0-0.018,0-0.035,0-0.045
				c-0.004-0.041-0.004-0.076-0.004-0.119l-0.143-37.254c0-0.355,0.09-0.709,0.268-1.021l2.445-4.311
				c0.139-0.244,0.328-0.461,0.555-0.633l5.09-3.801c0.139-0.096,0.291-0.182,0.451-0.252l7.545-3.09l9.471-2.391l10.723-1.34
				l11.15-0.166l10.809,0.875l9.883,2.043l8.26,3.029l6.121,3.775c0.203,0.131,0.385,0.295,0.537,0.484l3.16,4.096
				c0.229,0.303,0.375,0.666,0.416,1.047l0.432,4.234l0.15,37.59c0.006,0.227-0.029,0.461-0.104,0.686
				c-0.055,0.164-0.133,0.32-0.225,0.467l-2.574,4.068c-0.135,0.209-0.309,0.391-0.508,0.545l-5.098,3.811l-7.74,3.393l-9.744,2.34
				l-10.555,1.332L912.816,484.025z M880.191,471.066l5.506,3.342l7.57,2.848l9.299,1.844l10.391,0.832l10.721-0.156l10.107-1.273
				l9.189-2.18l6.988-3.049l4.377-3.334l2.012-3.186l-0.309-3.072l-2.57-3.229l-5.467-3.551l-7.531-2.588l-9.367-1.932l-10.4-0.979
				l-10.691,0.164l-10.264,1.273l-8.916,2.391l-7.281,3.004l-4.314,3.158l-1.924,3.393l0.209,2.973L880.191,471.066z
				 M877.139,427.578l0.113,30.207l4.33-3.107l7.951-3.326l9.445-2.527l10.762-1.342l11.137-0.164l10.844,1.021l9.852,2.035
				l8.23,2.881l6.182,3.949c0.143,0.088,0.271,0.197,0.389,0.328l-0.104-27.686l-0.363-3.455l-2.58-3.342l-5.434-3.393l-7.592-2.762
				l-9.338-1.924l-10.361-0.83l-10.736,0.156l-10.25,1.271l-8.947,2.252l-7.027,2.9l-4.535,3.393L877.139,427.578z"/>
		</g>
		<g>
			<polyline fill="#FFFFFF" points="891.252,459.863 887.58,462.156 885.863,464.668 886.295,467.109 888.875,469.689 
				893.256,471.775 899.363,473.645 906.471,474.787 914.371,475.438 922.482,475.299 930.098,474.65 936.914,473.35 
				942.305,471.49 945.967,469.266 947.686,466.824 947.252,464.312 944.816,461.863 939.283,463.732 932.535,464.963 
				924.852,465.68 916.809,465.68 908.838,465.102 901.732,463.879 895.701,462.156 891.252,459.863 			"/>
		</g>
		<g>
			<path fill="#FFFFFF" d="M914.371,477.49c-0.057,0-0.111-0.01-0.168-0.01l-7.9-0.648l-7.264-1.162l-6.387-1.938l-4.656-2.189
				c-0.213-0.104-0.402-0.244-0.572-0.408l-2.578-2.58c-0.295-0.295-0.494-0.674-0.568-1.09l-0.432-2.441
				c-0.092-0.527,0.025-1.066,0.328-1.516l1.719-2.51c0.156-0.234,0.363-0.426,0.602-0.582l3.67-2.293
				c0.615-0.363,1.387-0.416,2.027-0.078l4.449,2.295l5.654,1.576l6.891,1.168l7.77,0.555l7.896-0.01l7.494-0.709l6.57-1.205
				l5.246-1.791c0.727-0.242,1.549-0.061,2.104,0.492l2.438,2.451c0.299,0.303,0.498,0.684,0.566,1.1l0.432,2.512
				c0.092,0.535-0.029,1.08-0.34,1.521l-1.721,2.443c-0.162,0.232-0.371,0.424-0.609,0.57l-3.662,2.227l-5.787,2.051l-7.1,1.367
				l-7.826,0.684l-8.25,0.148C914.393,477.49,914.385,477.49,914.371,477.49z M890.074,467.992l4.061,1.932l5.83,1.766l6.832,1.074
				l7.639,0.623l8.014-0.141l7.475-0.639l6.605-1.266l5.107-1.791l2.893-1.801l0.996-1.412l-0.182-1.037l-1.082-1.092l-4.324,1.463
				l-7.035,1.309l-7.861,0.744l-8.232,0.008l-8.117-0.59l-7.307-1.246l-6.246-1.773l-3.783-1.914l-2.324,1.455l-1.004,1.471
				l0.172,0.98L890.074,467.992z"/>
		</g>
	</g>
	<g>
		<g>
			<polygon fill="none" points="160.765,464.312 161.059,468.545 164.356,472.633 170.17,476.156 178.07,479.168 187.698,481.109 
				198.324,481.975 209.237,481.828 219.573,480.537 228.981,478.311 236.306,475.152 241.405,471.342 243.992,467.256 
				243.851,429.84 243.417,425.605 240.257,421.51 233.794,417.494 233.655,408.584 233.361,405.355 230.925,402.195 
				226.687,399.537 222.306,397.814 222.306,394.152 221.155,38.128 220.435,32.891 218.505,28.078 215.341,23.982 211.103,20.753 
				206.298,18.745 201.048,18.026 195.952,18.745 190.995,20.753 186.909,23.982 183.603,28.078 181.59,32.891 180.94,37.479 
				182.023,397.953 176.348,400.256 172.547,403.199 170.746,406.291 170.746,417.918 168.157,418.932 163.066,422.73 
				160.621,427.043 			"/>
		</g>
		<g>
			<path fill="#FFFFFF" d="M222.306,399.865c-1.129,0-2.043-0.918-2.047-2.043l-1.152-359.694l-0.701-4.961l-1.688-4.051
				l-2.832-3.671l-3.814-2.901l-4.314-1.809l-4.705-0.641l-4.814,0.676l-4.189,1.766l-3.87,3.057l-2.797,3.531l-1.791,4.295
				l-0.619,4.961c-0.139,1.125-1.186,1.922-2.281,1.782c-1.125-0.138-1.923-1.159-1.779-2.284l0.648-5.238
				c0.022-0.182,0.069-0.363,0.144-0.537l2.013-4.813c0.074-0.182,0.174-0.347,0.295-0.503l3.307-4.095l4.411-3.55
				c0.151-0.112,0.32-0.216,0.498-0.285l4.955-2.009l5.58-0.848c0.188-0.034,0.377-0.034,0.563,0l5.251,0.718
				c0.177,0.019,0.35,0.07,0.512,0.139l4.805,2.01c0.164,0.068,0.315,0.154,0.453,0.26l4.238,3.229
				c0.143,0.104,0.269,0.233,0.377,0.373l3.164,4.094c0.117,0.156,0.212,0.32,0.281,0.494l1.93,4.813l0.867,6.718l1.15,358.958
				c0.005,1.135-0.908,2.053-2.039,2.061C222.31,399.865,222.306,399.865,222.306,399.865z"/>
		</g>
		<g>
			<path fill="#FFFFFF" d="M182.023,400.006c-1.131,0-2.045-0.918-2.049-2.045l-1.082-360.473c-0.004-1.134,0.91-2.051,2.044-2.061
				h0.004c1.13,0,2.043,0.918,2.048,2.044l1.082,360.474c0.004,1.133-0.91,2.051-2.044,2.061H182.023z"/>
		</g>
		<g>
			<path fill="#FFFFFF" d="M170.746,419.545c-1.131,0-2.048-0.918-2.048-2.051v-11.203c0-0.365,0.096-0.719,0.277-1.031l1.801-3.09
				c0.134-0.225,0.308-0.426,0.515-0.59l3.802-2.943c0.146-0.111,0.311-0.207,0.484-0.277l5.676-2.303l7.362-1.947l8.12-0.908
				l8.51-0.176l8.19,0.729l7.546,1.473l6.428,2.396l4.602,2.84c0.209,0.123,0.385,0.285,0.537,0.486l2.438,3.16
				c0.232,0.303,0.381,0.674,0.414,1.064l0.295,3.229l0.146,9.057c0.018,1.135-0.883,2.061-2.016,2.086c-0.009,0-0.022,0-0.031,0
				c-1.117,0-2.029-0.9-2.047-2.018l-0.369-11.393l-1.852-2.398l-3.928-2.469l-5.734-2.119l-7.004-1.344l-7.758-0.684l-8.104,0.164
				l-7.644,0.842l-6.813,1.809l-5.16,2.113l-3.268,2.527l-1.32,2.268v10.65C172.794,418.627,171.876,419.545,170.746,419.545z"/>
		</g>
		<g>
			<path fill="#FFFFFF" d="M198.35,484.025l-10.817-0.873l-9.865-1.975l-8.228-3.107l-6.144-3.688
				c-0.204-0.121-0.386-0.279-0.532-0.461l-3.299-4.086c-0.264-0.328-0.42-0.727-0.45-1.152l-0.295-4.215c0-0.018,0-0.035,0-0.045
				c-0.003-0.041-0.003-0.076-0.003-0.119l-0.144-37.254c0-0.355,0.092-0.709,0.269-1.021l2.446-4.311
				c0.138-0.244,0.328-0.461,0.554-0.633l5.09-3.801c0.139-0.096,0.291-0.182,0.451-0.252l7.544-3.09l9.472-2.391l10.722-1.34
				l11.152-0.166l10.809,0.875l9.883,2.043l8.259,3.029l6.12,3.775c0.203,0.131,0.387,0.295,0.538,0.484l3.159,4.096
				c0.229,0.303,0.377,0.666,0.416,1.047l0.434,4.234l0.15,37.59c0.004,0.227-0.031,0.461-0.104,0.686
				c-0.057,0.164-0.135,0.32-0.225,0.467l-2.576,4.068c-0.134,0.209-0.307,0.391-0.506,0.545l-5.1,3.811l-7.74,3.393l-9.744,2.34
				l-10.554,1.332L198.35,484.025z M165.726,471.066l5.506,3.342l7.569,2.848l9.299,1.844l10.39,0.832l10.721-0.156l10.109-1.273
				l9.189-2.18l6.986-3.049l4.377-3.334l2.012-3.186l-0.307-3.072l-2.57-3.229l-5.469-3.551l-7.531-2.588l-9.367-1.932
				l-10.398-0.979l-10.691,0.164l-10.264,1.273l-8.917,2.391l-7.28,3.004l-4.315,3.158l-1.923,3.393l0.207,2.973L165.726,471.066z
				 M162.673,427.578l0.112,30.207l4.329-3.107l7.952-3.326l9.445-2.527l10.761-1.342l11.139-0.164l10.844,1.021l9.852,2.035
				l8.229,2.881l6.182,3.949c0.143,0.088,0.273,0.197,0.39,0.328l-0.104-27.686l-0.364-3.455l-2.58-3.342l-5.433-3.393l-7.593-2.762
				l-9.336-1.924l-10.363-0.83l-10.735,0.156l-10.25,1.271l-8.947,2.252l-7.027,2.9l-4.535,3.393L162.673,427.578z"/>
		</g>
		<g>
			<polyline fill="#FFFFFF" points="176.784,459.863 173.113,462.156 171.396,464.668 171.829,467.109 174.408,469.689 
				178.788,471.775 184.896,473.645 192.005,474.787 199.904,475.438 208.017,475.299 215.63,474.65 222.448,473.35 227.838,471.49 
				231.499,469.266 233.218,466.824 232.786,464.312 230.349,461.863 224.815,463.732 218.067,464.963 210.384,465.68 
				202.342,465.68 194.372,465.102 187.265,463.879 181.234,462.156 176.784,459.863 			"/>
		</g>
		<g>
			<path fill="#FFFFFF" d="M199.904,477.49c-0.057,0-0.112-0.01-0.169-0.01l-7.9-0.648l-7.263-1.162l-6.385-1.938l-4.658-2.189
				c-0.212-0.104-0.403-0.244-0.571-0.408l-2.58-2.58c-0.294-0.295-0.493-0.674-0.567-1.09l-0.433-2.441
				c-0.091-0.527,0.026-1.066,0.328-1.516l1.72-2.51c0.156-0.234,0.363-0.426,0.602-0.582l3.67-2.293
				c0.62-0.363,1.387-0.416,2.026-0.078l4.45,2.295l5.653,1.576l6.893,1.168l7.77,0.555l7.895-0.01l7.494-0.709l6.57-1.205
				l5.246-1.791c0.725-0.242,1.555-0.061,2.104,0.492l2.438,2.451c0.299,0.303,0.498,0.684,0.568,1.1l0.432,2.512
				c0.092,0.535-0.029,1.08-0.342,1.521l-1.719,2.443c-0.164,0.232-0.373,0.424-0.61,0.57l-3.661,2.227l-5.788,2.051l-7.1,1.367
				l-7.826,0.684l-8.25,0.148C199.926,477.49,199.917,477.49,199.904,477.49z M175.606,467.992l4.062,1.932l5.83,1.766l6.831,1.074
				l7.64,0.623l8.013-0.141l7.477-0.639l6.605-1.266l5.107-1.791l2.891-1.801l0.996-1.412l-0.182-1.037l-1.081-1.092l-4.325,1.463
				l-7.033,1.309l-7.861,0.744l-8.233,0.008l-8.117-0.59l-7.307-1.246l-6.246-1.773l-3.783-1.914l-2.325,1.455l-1.004,1.471
				l0.174,0.98L175.606,467.992z"/>
		</g>
	</g>
	<g>
		<g>
			<polygon fill="none" points="398.919,464.312 399.214,468.545 402.511,472.633 408.326,476.156 416.226,479.168 425.853,481.109 
				436.479,481.975 447.393,481.828 457.73,480.537 467.136,478.311 474.46,475.152 479.56,471.342 482.149,467.256 482.005,429.84 
				481.573,425.605 478.413,421.51 471.948,417.494 471.812,408.584 471.517,405.355 469.08,402.195 464.843,399.537 
				460.462,397.814 460.462,394.152 459.31,38.128 458.592,32.891 456.66,28.078 453.497,23.982 449.259,20.753 444.454,18.745 
				439.202,18.026 434.108,18.745 429.151,20.753 425.065,23.982 421.759,28.078 419.745,32.891 419.095,37.479 420.177,397.953 
				414.503,400.256 410.702,403.199 408.901,406.291 408.901,417.918 406.313,418.932 401.222,422.73 398.776,427.043 			"/>
		</g>
		<g>
			<path fill="#FFFFFF" d="M460.462,399.865c-1.131,0-2.044-0.918-2.049-2.043l-1.15-359.694l-0.701-4.961l-1.688-4.051
				l-2.831-3.671l-3.813-2.901l-4.315-1.809l-4.707-0.641l-4.812,0.676l-4.191,1.766l-3.869,3.057l-2.795,3.531l-1.793,4.295
				l-0.619,4.961c-0.139,1.125-1.189,1.922-2.281,1.782c-1.125-0.138-1.922-1.159-1.779-2.284l0.65-5.238
				c0.021-0.182,0.068-0.363,0.141-0.537l2.014-4.813c0.074-0.182,0.173-0.347,0.295-0.503l3.307-4.095l4.412-3.55
				c0.15-0.112,0.32-0.216,0.497-0.285l4.956-2.009l5.58-0.848c0.186-0.034,0.377-0.034,0.562,0l5.251,0.718
				c0.177,0.019,0.351,0.07,0.511,0.139l4.805,2.01c0.165,0.068,0.316,0.154,0.455,0.26l4.237,3.229
				c0.144,0.104,0.269,0.233,0.378,0.373l3.163,4.094c0.117,0.156,0.212,0.32,0.282,0.494l1.93,4.813l0.866,6.718l1.151,358.958
				c0.004,1.135-0.908,2.053-2.038,2.061C460.466,399.865,460.462,399.865,460.462,399.865z"/>
		</g>
		<g>
			<path fill="#FFFFFF" d="M420.177,400.006c-1.129,0-2.041-0.918-2.047-2.045l-1.082-360.473c-0.004-1.134,0.909-2.051,2.043-2.061
				h0.004c1.131,0,2.044,0.918,2.048,2.044l1.083,360.474c0.004,1.133-0.908,2.051-2.043,2.061H420.177z"/>
		</g>
		<g>
			<path fill="#FFFFFF" d="M408.901,419.545c-1.129,0-2.047-0.918-2.047-2.051v-11.203c0-0.365,0.094-0.719,0.275-1.031l1.801-3.09
				c0.135-0.225,0.308-0.426,0.517-0.59l3.8-2.943c0.146-0.111,0.312-0.207,0.484-0.277l5.676-2.303l7.363-1.947l8.121-0.908
				l8.51-0.176l8.191,0.729l7.544,1.473l6.429,2.396l4.602,2.84c0.207,0.123,0.385,0.285,0.535,0.486l2.438,3.16
				c0.234,0.303,0.381,0.674,0.416,1.064l0.295,3.229l0.146,9.057c0.018,1.135-0.883,2.061-2.018,2.086c-0.008,0-0.021,0-0.031,0
				c-1.115,0-2.029-0.9-2.046-2.018l-0.368-11.393l-1.854-2.398l-3.925-2.469l-5.737-2.119l-7.002-1.344l-7.758-0.684l-8.104,0.164
				l-7.645,0.842l-6.813,1.809l-5.159,2.113l-3.269,2.527l-1.321,2.268v10.65C410.948,418.627,410.03,419.545,408.901,419.545z"/>
		</g>
		<g>
			<path fill="#FFFFFF" d="M436.507,484.025l-10.818-0.873l-9.865-1.975l-8.229-3.107l-6.142-3.688
				c-0.203-0.121-0.385-0.279-0.533-0.461l-3.299-4.086c-0.264-0.328-0.42-0.727-0.449-1.152l-0.295-4.215c0-0.018,0-0.035,0-0.045
				c-0.005-0.041-0.005-0.076-0.005-0.119l-0.142-37.254c0-0.355,0.091-0.709,0.268-1.021l2.446-4.311
				c0.138-0.244,0.329-0.461,0.554-0.633l5.092-3.801c0.137-0.096,0.289-0.182,0.449-0.252l7.545-3.09l9.471-2.391l10.724-1.34
				l11.149-0.166l10.81,0.875l9.882,2.043l8.26,3.029l6.121,3.775c0.203,0.131,0.385,0.295,0.537,0.484l3.16,4.096
				c0.229,0.303,0.377,0.666,0.416,1.047l0.432,4.234l0.152,37.59c0.004,0.227-0.031,0.461-0.105,0.686
				c-0.057,0.164-0.133,0.32-0.225,0.467l-2.574,4.068c-0.135,0.209-0.309,0.391-0.508,0.545l-5.1,3.811l-7.738,3.393l-9.745,2.34
				l-10.554,1.332L436.507,484.025z M403.88,471.066l5.506,3.342l7.572,2.848l9.298,1.844l10.389,0.832l10.723-0.156l10.106-1.273
				l9.191-2.18l6.986-3.049l4.377-3.334l2.012-3.186l-0.307-3.072l-2.572-3.229l-5.467-3.551l-7.531-2.588l-9.368-1.932
				l-10.397-0.979l-10.692,0.164l-10.265,1.273l-8.916,2.391l-7.281,3.004l-4.316,3.158l-1.922,3.393l0.209,2.973L403.88,471.066z
				 M400.829,427.578l0.112,30.207l4.329-3.107l7.951-3.326l9.445-2.527l10.762-1.342l11.137-0.164l10.844,1.021l9.854,2.035
				l8.227,2.881l6.184,3.949c0.143,0.088,0.271,0.197,0.389,0.328l-0.104-27.686l-0.363-3.455l-2.58-3.342l-5.432-3.393
				l-7.594-2.762l-9.338-1.924l-10.362-0.83l-10.735,0.156l-10.25,1.271l-8.948,2.252l-7.024,2.9l-4.538,3.393L400.829,427.578z"/>
		</g>
		<g>
			<polyline fill="#FFFFFF" points="414.94,459.863 411.269,462.156 409.552,464.668 409.983,467.109 412.563,469.689 
				416.944,471.775 423.052,473.645 430.159,474.787 438.06,475.438 446.171,475.299 453.786,474.65 460.604,473.35 465.993,471.49 
				469.656,469.266 471.374,466.824 470.94,464.312 468.505,461.863 462.972,463.732 456.224,464.963 448.54,465.68 440.497,465.68 
				432.528,465.102 425.42,463.879 419.39,462.156 414.94,459.863 			"/>
		</g>
		<g>
			<path fill="#FFFFFF" d="M438.06,477.49c-0.057,0-0.112-0.01-0.168-0.01l-7.9-0.648l-7.264-1.162l-6.385-1.938l-4.658-2.189
				c-0.212-0.104-0.402-0.244-0.57-0.408l-2.581-2.58c-0.294-0.295-0.493-0.674-0.567-1.09l-0.432-2.441
				c-0.092-0.527,0.025-1.066,0.328-1.516l1.719-2.51c0.155-0.234,0.363-0.426,0.602-0.582l3.672-2.293
				c0.613-0.363,1.385-0.416,2.025-0.078l4.449,2.295l5.654,1.576l6.891,1.168l7.77,0.555l7.896-0.01l7.493-0.709l6.571-1.205
				l5.246-1.791c0.727-0.242,1.559-0.061,2.104,0.492l2.438,2.451c0.299,0.303,0.496,0.684,0.566,1.1l0.434,2.512
				c0.09,0.535-0.031,1.08-0.344,1.521l-1.717,2.443c-0.164,0.232-0.373,0.424-0.609,0.57l-3.664,2.227l-5.787,2.051l-7.1,1.367
				l-7.826,0.684l-8.25,0.148C438.081,477.49,438.073,477.49,438.06,477.49z M413.763,467.992l4.061,1.932l5.83,1.766l6.831,1.074
				l7.642,0.623l8.012-0.141l7.475-0.639l6.606-1.266l5.108-1.791l2.892-1.801l0.995-1.412l-0.182-1.037l-1.082-1.092l-4.325,1.463
				l-7.034,1.309l-7.861,0.744l-8.232,0.008l-8.117-0.59l-7.307-1.246l-6.246-1.773l-3.783-1.914l-2.324,1.455l-1.004,1.471
				l0.172,0.98L413.763,467.992z"/>
		</g>
	</g>
	<g>
		<g>
			<polygon fill="none" points="362.925,35.687 362.631,31.454 359.333,27.368 353.521,23.843 345.618,20.831 335.991,18.892 
				325.365,18.026 314.452,18.173 304.114,19.463 294.708,21.688 287.384,24.848 282.284,28.657 279.696,32.744 279.839,70.162 
				280.272,74.395 283.433,78.49 289.896,82.507 290.032,91.416 290.327,94.646 292.765,97.804 297.003,100.462 301.384,102.185 
				301.384,105.848 302.534,461.871 303.253,467.109 305.185,471.922 308.349,476.018 312.587,479.246 317.392,481.256 
				322.642,481.975 327.737,481.256 332.694,479.246 336.78,476.018 340.087,471.922 342.101,467.109 342.749,462.52 
				341.667,102.047 347.341,99.745 351.144,96.801 352.944,93.71 352.944,82.083 355.531,81.07 360.623,77.27 363.069,72.958 			"/>
		</g>
		<g>
			<path fill="#FFFFFF" d="M322.642,484.025c-0.09,0-0.186-0.008-0.276-0.025l-5.251-0.719c-0.178-0.018-0.351-0.068-0.512-0.139
				l-4.805-2.008c-0.164-0.068-0.315-0.156-0.453-0.26l-4.238-3.229c-0.143-0.105-0.27-0.234-0.377-0.373l-3.164-4.096
				c-0.117-0.154-0.213-0.32-0.281-0.492l-1.931-4.814l-0.866-6.717l-1.15-358.959c-0.006-1.135,0.908-2.052,2.039-2.062
				c0.003,0,0.008,0,0.008,0c1.129,0,2.043,0.918,2.047,2.045l1.152,359.693l0.701,4.961l1.688,4.053l2.832,3.67l3.812,2.9
				l4.316,1.811l4.705,0.639l4.813-0.674l4.19-1.766l3.871-3.057l2.795-3.533l1.793-4.293l0.619-4.961
				c0.133-1.127,1.177-1.863,2.281-1.785c1.125,0.141,1.921,1.162,1.778,2.287l-0.649,5.238c-0.021,0.182-0.069,0.363-0.143,0.535
				l-2.014,4.814c-0.072,0.182-0.172,0.346-0.295,0.502l-3.307,4.096l-4.41,3.549c-0.152,0.111-0.32,0.215-0.498,0.285l-4.957,2.01
				L322.929,484C322.832,484.018,322.737,484.025,322.642,484.025z"/>
		</g>
		<g>
			<path fill="#FFFFFF" d="M342.749,464.574c-1.129,0-2.043-0.92-2.047-2.045l-1.082-360.473c-0.005-1.134,0.908-2.052,2.043-2.061
				h0.004c1.13,0,2.043,0.918,2.047,2.042l1.082,360.476c0.006,1.133-0.908,2.051-2.043,2.061H342.749z"/>
		</g>
		<g>
			<path fill="#FFFFFF" d="M318.444,106.973l-8.191-0.727l-7.545-1.472l-6.428-2.398l-4.602-2.841
				c-0.209-0.12-0.386-0.285-0.537-0.483l-2.438-3.16c-0.234-0.303-0.381-0.676-0.416-1.064l-0.294-3.23l-0.147-9.055
				c-0.016-1.135,0.883-2.061,2.018-2.087c0.009,0,0.021,0,0.031,0c1.117,0,2.029,0.899,2.047,2.018l0.367,11.394l1.854,2.396
				l3.926,2.468l5.736,2.122l7.004,1.342l7.756,0.683l8.105-0.163l7.645-0.84l6.812-1.81l5.16-2.112l3.268-2.529l1.32-2.268V82.507
				c0-1.134,0.918-2.052,2.049-2.052c1.129,0,2.047,0.918,2.047,2.052V93.71c0,0.363-0.096,0.718-0.277,1.03l-1.801,3.091
				c-0.135,0.225-0.307,0.423-0.515,0.589l-3.802,2.943c-0.146,0.112-0.311,0.207-0.484,0.276l-5.676,2.303l-7.362,1.947l-8.12,0.91
				L318.444,106.973z"/>
		</g>
		<g>
			<path fill="#FFFFFF" d="M317.417,89.953l-10.809-0.874l-9.883-2.043l-8.26-3.031l-6.121-3.773
				c-0.203-0.131-0.385-0.295-0.536-0.485l-3.16-4.095c-0.229-0.303-0.376-0.667-0.415-1.048l-0.434-4.234l-0.15-37.591
				c-0.005-0.233,0.029-0.467,0.107-0.692v-0.009l0,0c0.057-0.155,0.131-0.311,0.221-0.45l2.576-4.069
				c0.134-0.207,0.307-0.389,0.506-0.545l5.1-3.809l7.74-3.395l9.744-2.337l10.553-1.334l11.143-0.164l10.818,0.874l9.865,1.975
				l8.229,3.108l6.143,3.688c0.203,0.122,0.385,0.277,0.531,0.459l3.3,4.087c0.263,0.328,0.419,0.727,0.45,1.15l0.294,4.216
				c0,0.019,0,0.035,0,0.053c0,0,0,0,0.005,0c0,0,0,0,0,0.009c0,0.034,0,0.069,0,0.104l0.143,37.253
				c0,0.354-0.092,0.709-0.269,1.021l-2.446,4.312c-0.138,0.242-0.328,0.458-0.554,0.633l-5.091,3.799
				c-0.139,0.097-0.289,0.182-0.449,0.251l-7.546,3.091l-9.472,2.39l-10.721,1.343L317.417,89.953z M284.831,76.949l5.432,3.395
				l7.593,2.762l9.337,1.921l10.363,0.832l10.734-0.156l10.251-1.271l8.948-2.252l7.025-2.899l4.537-3.395l1.965-3.463
				l-0.111-30.206l-4.33,3.108l-7.951,3.323l-9.445,2.528l-10.763,1.342l-11.138,0.165l-10.844-1.022l-9.852-2.034l-8.229-2.883
				l-6.183-3.947c-0.142-0.087-0.272-0.199-0.389-0.329l0.104,27.687l0.363,3.454L284.831,76.949z M284.683,39.548l5.469,3.55
				l7.531,2.589l9.367,1.931l10.398,0.979l10.691-0.165l10.264-1.272l8.916-2.39l7.281-3.004l4.316-3.16l1.922-3.394l-0.207-2.97
				l-2.668-3.307l-5.506-3.342l-7.57-2.85l-9.299-1.844L325.2,20.069l-10.723,0.156l-10.107,1.272l-9.189,2.182l-6.986,3.048
				l-4.377,3.333l-2.012,3.186l0.307,3.074L284.683,39.548z"/>
		</g>
		<g>
			<polyline fill="#FFFFFF" points="346.905,40.137 350.576,37.843 352.294,35.332 351.86,32.891 349.281,30.31 344.901,28.224 
				338.793,26.355 331.685,25.211 323.784,24.563 315.673,24.701 308.06,25.35 301.241,26.649 295.851,28.51 292.19,30.736 
				290.471,33.177 290.903,35.687 293.341,38.138 298.873,36.267 305.622,35.038 313.305,34.319 321.348,34.319 329.317,34.9 
				336.425,36.12 342.456,37.843 346.905,40.137 			"/>
		</g>
		<g>
			<path fill="#FFFFFF" d="M346.905,42.189c-0.322,0-0.645-0.078-0.939-0.233l-4.449-2.294l-5.654-1.576l-6.893-1.169l-7.77-0.554
				l-7.896,0.009l-7.493,0.71l-6.571,1.203l-5.246,1.792c-0.731,0.242-1.554,0.052-2.104-0.493l-2.437-2.451
				c-0.298-0.302-0.497-0.684-0.567-1.099l-0.432-2.511c-0.092-0.537,0.029-1.082,0.342-1.523l1.719-2.441
				c0.164-0.234,0.371-0.424,0.61-0.571l3.661-2.226l5.788-2.051l7.099-1.369l7.827-0.684l8.249-0.147l8.105,0.658l7.263,1.16
				l6.386,1.939l4.656,2.19c0.213,0.104,0.403,0.242,0.572,0.406l2.58,2.58c0.293,0.295,0.494,0.676,0.566,1.092l0.434,2.441
				c0.09,0.527-0.027,1.064-0.33,1.515l-1.717,2.511c-0.156,0.233-0.363,0.424-0.602,0.58l-3.672,2.294
				C347.657,42.077,347.282,42.189,346.905,42.189z M321.348,32.267l8.116,0.589l7.307,1.247l6.247,1.775l3.783,1.913l2.325-1.454
				l1.004-1.473l-0.174-0.979l-1.874-1.879l-4.061-1.931l-5.831-1.765l-6.83-1.074l-7.744-0.633l-7.909,0.147l-7.476,0.642
				l-6.605,1.263l-5.107,1.793l-2.893,1.801l-0.994,1.411l0.182,1.039l1.08,1.09l4.326-1.463l7.033-1.307l7.861-0.744
				L321.348,32.267z"/>
		</g>
	</g>
	<g>
		<g>
			<polygon fill="none" points="124.771,35.687 124.476,31.454 121.177,27.368 115.363,23.843 107.464,20.831 97.837,18.892 
				87.209,18.026 76.296,18.173 65.959,19.463 56.553,21.688 49.229,24.848 44.13,28.657 41.541,32.744 41.684,70.162 
				42.117,74.395 45.276,78.49 51.74,82.507 51.878,91.416 52.172,94.646 54.609,97.804 58.847,100.462 63.228,102.185 
				63.228,105.848 64.38,461.871 65.098,467.109 67.028,471.922 70.193,476.018 74.43,479.246 79.236,481.256 84.486,481.975 
				89.582,481.256 94.538,479.246 98.624,476.018 101.931,471.922 103.944,467.109 104.593,462.52 103.512,102.047 109.187,99.745 
				112.987,96.801 114.788,93.71 114.788,82.083 117.376,81.07 122.467,77.27 124.913,72.958 			"/>
		</g>
		<g>
			<path fill="#FFFFFF" d="M84.486,484.025c-0.091,0-0.186-0.008-0.277-0.025l-5.251-0.719c-0.178-0.018-0.351-0.068-0.511-0.139
				l-4.805-2.008c-0.165-0.068-0.315-0.156-0.454-0.26l-4.239-3.229c-0.142-0.105-0.268-0.234-0.376-0.373l-3.164-4.096
				c-0.118-0.154-0.212-0.32-0.282-0.492l-1.932-4.814l-0.865-6.717L61.18,102.195c-0.004-1.135,0.909-2.052,2.039-2.062
				c0.005,0,0.009,0,0.009,0c1.13,0,2.043,0.918,2.048,2.045l1.151,359.693l0.702,4.961l1.688,4.053l2.831,3.67l3.813,2.9
				l4.316,1.811l4.707,0.639l4.813-0.674l4.189-1.766l3.87-3.057l2.796-3.533l1.792-4.293l0.619-4.961
				c0.135-1.127,1.178-1.863,2.282-1.785c1.125,0.141,1.921,1.162,1.779,2.287l-0.649,5.238c-0.022,0.182-0.069,0.363-0.142,0.535
				l-2.014,4.814c-0.074,0.182-0.173,0.346-0.294,0.502l-3.307,4.096l-4.411,3.549c-0.151,0.111-0.32,0.215-0.498,0.285l-4.956,2.01
				L84.772,484C84.677,484.018,84.582,484.025,84.486,484.025z"/>
		</g>
		<g>
			<path fill="#FFFFFF" d="M104.593,464.574c-1.13,0-2.043-0.92-2.047-2.045l-1.082-360.473c-0.003-1.134,0.909-2.052,2.043-2.061
				h0.004c1.129,0,2.042,0.918,2.047,2.042l1.083,360.476c0.004,1.133-0.909,2.051-2.043,2.061H104.593z"/>
		</g>
		<g>
			<path fill="#FFFFFF" d="M80.287,106.973l-8.19-0.727l-7.545-1.472l-6.428-2.398l-4.602-2.841
				c-0.207-0.12-0.385-0.285-0.536-0.483l-2.438-3.16c-0.234-0.303-0.38-0.676-0.416-1.064l-0.294-3.23l-0.147-9.055
				c-0.017-1.135,0.883-2.061,2.017-2.087c0.009,0,0.022,0,0.031,0c1.116,0,2.03,0.899,2.047,2.018l0.368,11.394l1.853,2.396
				l3.926,2.468l5.736,2.122l7.004,1.342l7.757,0.683l8.104-0.163l7.644-0.84l6.814-1.81l5.16-2.112l3.268-2.529l1.321-2.268V82.507
				c0-1.134,0.918-2.052,2.047-2.052s2.047,0.918,2.047,2.052V93.71c0,0.363-0.094,0.718-0.276,1.03l-1.801,3.091
				c-0.134,0.225-0.308,0.423-0.516,0.589l-3.799,2.943c-0.147,0.112-0.312,0.207-0.485,0.276l-5.675,2.303l-7.363,1.947
				l-8.121,0.91L80.287,106.973z"/>
		</g>
		<g>
			<path fill="#FFFFFF" d="M79.262,89.953l-10.81-0.874l-9.881-2.043l-8.26-3.031l-6.121-3.773
				c-0.204-0.131-0.386-0.295-0.536-0.485l-3.16-4.095c-0.229-0.303-0.377-0.667-0.416-1.048l-0.433-4.234l-0.151-37.591
				c-0.005-0.233,0.03-0.467,0.108-0.692v-0.009l0,0c0.056-0.155,0.13-0.311,0.221-0.45l2.576-4.069
				c0.135-0.207,0.307-0.389,0.507-0.545l5.099-3.809l7.739-3.395l9.744-2.337l10.553-1.334l11.143-0.164L98,16.848l9.865,1.975
				l8.229,3.108l6.142,3.688c0.204,0.122,0.385,0.277,0.532,0.459l3.299,4.087c0.264,0.328,0.42,0.727,0.45,1.15l0.294,4.216
				c0,0.019,0,0.035,0,0.053c0,0,0,0,0.004,0c0,0,0,0,0,0.009c0,0.034,0,0.069,0,0.104l0.143,37.253
				c0,0.354-0.091,0.709-0.268,1.021l-2.446,4.312c-0.139,0.242-0.329,0.458-0.554,0.633l-5.091,3.799
				c-0.138,0.097-0.29,0.182-0.45,0.251l-7.545,3.091l-9.471,2.39l-10.723,1.343L79.262,89.953z M46.674,76.949l5.433,3.395
				l7.593,2.762l9.337,1.921L79.4,85.858l10.736-0.156l10.25-1.271l8.948-2.252l7.025-2.899l4.537-3.395l1.965-3.463l-0.113-30.206
				l-4.329,3.108l-7.952,3.323l-9.445,2.528l-10.761,1.342l-11.138,0.165L68.28,51.66l-9.853-2.034l-8.229-2.883l-6.182-3.947
				c-0.144-0.087-0.272-0.199-0.39-0.329l0.104,27.687l0.363,3.454L46.674,76.949z M46.528,39.548l5.467,3.55l7.532,2.589
				l9.367,1.931l10.399,0.979l10.691-0.165l10.264-1.272l8.917-2.39l7.281-3.004l4.316-3.16l1.921-3.394l-0.208-2.97l-2.666-3.307
				l-5.507-3.342l-7.571-2.85L97.434,20.9l-10.389-0.831l-10.723,0.156l-10.106,1.272l-9.191,2.182l-6.986,3.048l-4.376,3.333
				l-2.014,3.186l0.309,3.074L46.528,39.548z"/>
		</g>
		<g>
			<polyline fill="#FFFFFF" points="108.749,40.137 112.419,37.843 114.138,35.332 113.706,32.891 111.125,30.31 106.745,28.224 
				100.637,26.355 93.529,25.211 85.629,24.563 77.518,24.701 69.903,25.35 63.085,26.649 57.696,28.51 54.033,30.736 
				52.315,33.177 52.749,35.687 55.185,38.138 60.716,36.267 67.465,35.038 75.149,34.319 83.193,34.319 91.162,34.9 98.27,36.12 
				104.298,37.843 108.749,40.137 			"/>
		</g>
		<g>
			<path fill="#FFFFFF" d="M108.749,42.189c-0.319,0-0.645-0.078-0.939-0.233l-4.449-2.294l-5.654-1.576l-6.891-1.169l-7.77-0.554
				l-7.896,0.009l-7.493,0.71l-6.571,1.203l-5.246,1.792c-0.723,0.242-1.555,0.052-2.104-0.493l-2.437-2.451
				c-0.3-0.302-0.498-0.684-0.567-1.099l-0.433-2.511c-0.091-0.537,0.03-1.082,0.341-1.523l1.718-2.441
				c0.165-0.234,0.372-0.424,0.61-0.571l3.662-2.226l5.788-2.051l7.1-1.369l7.826-0.684l8.251-0.147l8.103,0.658l7.265,1.16
				l6.384,1.939l4.658,2.19c0.212,0.104,0.402,0.242,0.571,0.406l2.58,2.58c0.294,0.295,0.494,0.676,0.567,1.092l0.432,2.441
				c0.091,0.527-0.025,1.064-0.329,1.515l-1.718,2.511c-0.155,0.233-0.364,0.424-0.603,0.58l-3.67,2.294
				C109.503,42.077,109.126,42.189,108.749,42.189z M83.193,32.267l8.115,0.589l7.308,1.247l6.246,1.775l3.783,1.913l2.324-1.454
				l1.005-1.473l-0.173-0.979l-1.875-1.879l-4.06-1.931l-5.831-1.765l-6.831-1.074l-7.745-0.633l-7.908,0.147l-7.476,0.642
				l-6.606,1.263l-5.107,1.793L55.47,32.25l-0.996,1.411l0.182,1.039l1.083,1.09l4.324-1.463l7.034-1.307l7.861-0.744L83.193,32.267
				z"/>
		</g>
	</g>
</g>
</svg>
