<?xml version="1.0" encoding="utf-8"?>
<!-- Generator: Adobe Illustrator 15.1.0, SVG Export Plug-In . SVG Version: 6.00 Build 0)  -->
<!DOCTYPE svg PUBLIC "-//W3C//DTD SVG 1.1//EN" "http://www.w3.org/Graphics/SVG/1.1/DTD/svg11.dtd">
<svg version="1.1" id="Calque_1" xmlns="http://www.w3.org/2000/svg" xmlns:xlink="http://www.w3.org/1999/xlink" x="0px" y="0px"
	 width="500.57px" height="467.366px" viewBox="0 0 500.57 467.366" enable-background="new 0 0 500.57 467.366"
	 xml:space="preserve">
<polyline fill="none" points="220.883,454.045 221.16,467.081 182.285,438.01 181.984,425.017 220.883,454.045 "/>
<polyline fill="none" points="271.403,182.263 271.38,179.909 270.694,177.554 269.411,175.264 267.464,173.015 267.549,172.439 
	268.062,168.585 268.918,163.339 269.667,159.637 270.588,155.655 271.594,151.737 272.729,147.82 273.156,146.514 274.613,142.062 
	272.686,142.427 272.408,143.046 271.209,144.61 269.646,145.829 267.827,146.579 265.857,146.813 263.91,146.579 262.09,145.829 
	261.854,146.022 260.375,146.428 258.815,146.237 257.337,145.529 252.777,142.147 245.991,137.117 246.185,137.352 
	248.389,140.372 250.528,143.369 252.542,146.45 254.511,149.51 256.375,152.616 258.173,155.762 259.885,158.91 261.533,162.121 
	263.054,165.289 264.572,168.52 265.921,171.796 267.25,175.071 268.447,178.347 269.605,181.664 270.588,184.983 271.403,182.263 
	"/>
<polyline fill="none" points="260.314,128.726 257.209,127.099 257.359,127.162 257.874,127.847 260.035,131.015 261.94,134.312 
	263.588,137.651 263.868,139.044 263.287,143.859 262.86,145.102 262.09,145.829 263.91,146.579 265.857,146.813 267.827,146.579 
	269.646,145.829 271.209,144.61 272.408,143.046 274.613,142.062 279.813,140.028 281.697,140.457 282.834,140.971 283.433,141.741 
	283.732,142.683 284.076,143.668 284.888,146.642 285.959,149.662 287.22,152.573 288.677,155.528 290.347,158.459 292.208,161.37 
	294.222,164.196 295.441,165.352 296.962,166.06 298.502,166.251 299.873,165.866 300.688,165.032 300.879,163.854 301.264,160.214 
	301.458,159.038 300.472,148.634 301.563,149.02 302.186,149.725 303.619,152.916 305.053,156.083 306.638,159.23 308.242,162.398 
	309.998,165.523 311.776,168.628 313.66,171.731 315.629,174.856 317.704,177.919 319.826,180.936 321.986,183.976 324.255,186.996 
	326.59,189.95 329.006,192.924 331.491,195.858 334.039,198.789 336.67,201.595 337.912,202.6 339.369,203.199 340.867,203.305 
	342.064,202.879 342.836,202.001 343.03,200.867 343.457,197.205 343.629,196.071 342.687,186.996 342.366,183.805 344.72,183.357 
	347.117,182.435 348.637,181.536 350.222,184.383 352.042,187.552 353.903,190.741 355.895,193.865 357.95,196.972 360.089,200.096 
	362.274,203.113 364.542,206.176 366.897,209.215 369.318,212.21 371.844,215.188 374.368,218.119 377.024,221.052 378.285,222.015 
	379.742,222.657 381.218,222.722 382.461,222.38 383.21,221.481 383.809,216.685 383.98,215.507 381.454,191.705 383.745,190.806 
	384.559,190.355 385.672,192.476 387.49,195.687 389.417,198.875 391.387,202.001 393.484,205.125 395.711,208.229 398.046,211.269 
	400.442,214.288 402.902,217.328 405.473,220.282 408.126,223.173 410.91,226.019 413.714,228.865 416.627,231.671 417.93,232.503 
	419.343,233.041 420.755,233.061 421.849,232.592 422.578,231.733 422.705,230.643 423.198,226.981 423.348,225.848 
	420.608,200.887 422.021,201.894 424.354,204.783 426.708,207.632 429.234,210.435 431.846,213.195 434.522,215.872 
	437.284,218.527 440.131,221.116 443.084,223.684 446.079,226.19 449.143,228.564 452.289,230.877 455.478,233.212 457,233.939 
	458.583,234.111 459.912,233.748 460.724,232.869 461.386,228.117 461.558,226.938 460.55,217.927 461.023,217.947 464.984,219.318 
	468.945,220.624 472.926,221.823 476.885,222.871 480.909,223.835 484.848,224.649 488.809,225.377 492.749,225.997 496.709,226.49 
	497.972,226.404 498.978,225.911 499.577,225.055 500.261,220.302 500.285,219.555 499.814,218.718 498.934,217.819 
	492.469,213.152 489.086,210.928 485.705,208.68 482.216,206.454 478.683,204.334 475.067,202.214 471.447,200.159 470.399,199.604 
	474.66,197.484 475.217,196.863 475.879,192.132 475.729,191.276 474.981,190.292 473.696,189.35 472.175,188.686 468.56,187.529 
	464.92,186.396 461.366,185.368 457.727,184.404 454.151,183.527 450.597,182.671 447.067,181.964 443.577,181.278 440.131,180.659 
	436.683,180.145 433.323,179.737 446.079,173.509 446.616,172.953 447.259,168.22 447.195,167.45 446.658,166.551 445.61,165.694 
	444.284,164.967 442.849,164.496 439.146,163.705 435.55,162.977 431.888,162.312 428.314,161.735 424.738,161.241 421.25,160.813 
	417.783,160.471 414.334,160.086 410.932,159.895 407.636,159.743 404.381,159.658 401.17,159.615 398.002,159.723 396.354,159.786 
	411.617,152.464 412.131,151.931 412.772,147.179 412.75,146.366 412.065,145.423 410.932,144.545 409.54,143.839 408.063,143.412 
	404.487,142.832 400.977,142.318 397.445,141.847 393.955,141.442 390.531,141.099 387.127,140.819 383.809,140.563 
	380.448,140.372 377.171,140.264 373.919,140.157 370.73,140.157 367.562,140.243 364.457,140.286 361.396,140.434 358.421,140.649 
	357.714,140.713 371.287,134.249 371.844,133.712 372.462,128.939 372.376,128.126 371.758,127.228 370.645,126.349 
	369.232,125.643 367.753,125.215 364.221,124.616 360.689,124.102 357.222,123.588 353.733,123.181 350.307,122.818 
	346.945,122.495 343.629,122.239 340.291,122.047 337.014,121.896 333.759,121.81 330.571,121.768 327.446,121.79 324.319,121.833 
	321.322,121.962 318.646,122.132 319.887,120.848 320.466,116.053 320.358,115.239 319.61,114.232 318.389,113.355 316.89,112.648 
	315.33,112.306 311.837,112.028 308.456,111.943 305.159,112.048 302.1,112.328 299.167,112.691 296.425,113.312 295.505,113.847 
	294.607,114.404 293.729,115.002 292.638,115.389 291.311,115.303 288.355,114.617 286.729,118.3 286.45,118.685 285.874,119.564 
	285.123,120.377 284.223,121.168 283.882,121.382 283.195,124.764 281.697,126.905 279.256,128.64 276.046,129.902 272.322,130.544 
	268.298,130.61 264.229,130.01 260.461,128.789 260.314,128.726 "/>
<polyline fill="none" points="234.473,170.361 264.167,192.433 265.558,193.138 267.121,193.352 268.511,193.052 269.581,192.239 
	270.118,191.083 270.694,186.31 270.588,184.983 269.605,181.664 268.447,178.347 267.25,175.071 265.921,171.796 264.572,168.52 
	263.054,165.289 261.533,162.121 259.885,158.91 258.173,155.762 256.375,152.616 254.511,149.51 252.542,146.45 250.528,143.369 
	248.389,140.372 246.185,137.352 246.121,137.267 245.991,137.117 252.777,142.147 257.337,145.529 258.815,146.237 
	260.375,146.428 261.854,146.022 262.86,145.102 263.287,143.859 263.868,139.044 263.588,137.651 261.94,134.312 260.035,131.015 
	257.874,127.847 255.495,124.764 252.927,121.79 250.102,118.964 249.074,118.3 247.96,117.68 246.869,117.124 247.34,116.073 
	252.027,116.781 253.185,116.972 258.857,117.358 259.434,117.466 261.084,118.236 264.957,119.413 269.068,120.055 273.22,120.163 
	277.159,119.713 280.735,118.728 283.732,117.272 286.045,115.411 287.264,113.761 290.626,106.12 292.424,103.208 293.172,100.318 
	293.236,100.211 294.627,88.716 294.821,88.095 295.056,85.057 294.585,82.036 293.408,79.039 291.843,76.471 292.424,71.698 
	292.486,71.526 292.358,70.414 292.294,69.943 290.455,67.694 288.162,65.533 287.264,65.147 285.893,64.525 283.389,63.841 
	280.735,63.478 278.594,63.478 280.521,47.166 279.793,44.232 277.824,41.429 275.084,39.16 272.259,36.976 270.375,35.412 
	267.935,34.193 265.151,33.294 262.132,32.866 259.135,32.866 256.353,33.357 253.955,34.279 252.498,35.307 247.982,37.019 
	245.029,39.094 243.188,41.663 242.589,44.531 241.368,55.344 238.736,55.92 235.373,56.991 233.982,58.232 233.061,59.625 
	232.805,61.124 232.504,63.82 227.39,66.731 224.542,69.021 222.251,71.569 220.645,74.31 219.703,77.198 219.446,79.981 
	218.827,85.612 218.418,89.037 210.093,107.362 209.385,108.004 208.166,108.238 206.797,108.304 205.384,108.347 204.033,108.453 
	199.966,109.694 196.027,111.192 192.174,112.82 188.407,114.684 185.304,116.417 184.809,116.673 181.385,118.879 180.271,119.969 
	179.823,121.19 179.501,127.205 180.401,128.146 181.75,128.617 183.396,128.617 191.684,127.399 184.51,130.909 181.022,132.708 
	177.554,134.592 174.086,136.538 170.748,138.507 167.385,140.585 164.131,142.661 160.9,144.824 157.709,147.05 154.585,149.277 
	151.543,151.589 148.527,153.943 145.637,156.36 144.696,157.431 144.396,158.63 144.203,164.582 145.103,165.395 146.471,165.866 
	148.034,165.845 180.423,160.108 179.543,160.514 175.862,162.249 172.288,164.047 168.692,165.866 165.158,167.75 161.629,169.762 
	158.203,171.731 154.798,173.829 151.46,175.927 148.164,178.09 144.953,180.317 141.743,182.606 138.616,184.94 135.535,187.337 
	132.538,189.756 131.638,190.892 131.316,192.067 131.101,197.998 131.981,198.918 133.394,199.346 134.934,199.303 171.41,192.818 
	172.673,192.175 168.992,194.017 165.438,195.964 161.906,197.976 158.438,200.053 155.078,202.151 151.781,204.398 
	148.527,206.689 145.382,209 142.277,211.376 139.236,213.837 136.347,216.364 133.479,218.955 130.74,221.566 129.989,222.679 
	129.754,223.878 129.626,229.744 130.61,230.534 131.915,230.963 133.436,230.942 166.637,225.034 165.458,225.911 162.526,228.265 
	159.721,230.663 157.003,233.146 154.349,235.61 151.803,238.199 149.341,240.853 146.986,243.529 144.779,246.204 142.64,249.03 
	140.629,251.813 140.114,253.1 139.815,259.157 140.757,260.141 142.127,260.655 143.773,260.633 160.429,257.679 161.82,257.893 
	161.457,260.526 161.092,263.801 160.92,266.179 160.363,271.873 160.363,275.147 160.493,278.314 160.771,281.548 161.2,284.737 
	161.776,287.885 162.291,288.912 163.275,289.618 164.626,289.983 166.081,290.26 167.427,290.088 168.584,289.469 171.26,287.071 
	173.807,284.565 176.247,281.954 178.54,279.342 180.787,276.582 182.798,273.734 184.726,270.845 186.503,267.869 188.216,264.829 
	189.113,264.186 190.357,264.572 203.477,274.398 204.975,275.126 206.559,275.297 208.058,274.87 209.129,273.928 209.537,272.643 
	210.093,267.805 210.135,264.551 210.113,261.255 209.963,258.021 209.642,254.725 209.193,251.407 208.659,248.111 207.93,244.877 
	207.138,241.581 206.24,238.307 205.168,235.03 204.033,232.142 233.104,253.869 234.473,254.576 235.93,254.768 237.343,254.51 
	238.456,253.828 239.035,252.691 239.121,251.428 239.611,247.875 239.677,246.632 238.969,243.207 238.113,239.739 
	237.193,236.337 236.124,232.955 234.946,229.55 233.642,226.233 232.249,222.871 230.792,219.512 229.166,216.257 227.41,213.003 
	225.57,209.793 223.664,206.559 221.587,203.414 220.625,202.106 253.27,226.447 254.683,227.195 256.223,227.431 257.658,227.046 
	258.708,226.233 259.243,225.055 259.777,220.282 259.733,218.955 258.664,215.595 257.464,212.21 256.223,208.851 254.854,205.534 
	253.439,202.214 251.921,198.961 250.337,195.729 248.645,192.453 246.891,189.285 245.029,186.073 243.102,182.949 241.09,179.823 
	239.055,176.72 236.894,173.658 234.473,170.361 "/>
<polyline fill="none" points="321.386,86.788 322.008,86.812 324.939,86.812 327.745,86.726 328.729,86.489 329.05,85.932 
	329.649,81.159 329.372,80.452 328.449,79.662 327.893,79.361 330.313,79.404 333.44,79.425 336.521,79.382 339.518,79.276 
	342.474,79.191 345.385,79.039 348.21,78.783 351.014,78.525 353.733,78.226 356.407,77.906 358.978,77.478 359.77,77.179 
	360.54,71.89 360.175,71.204 359.233,70.477 357.906,69.792 356.429,69.363 338.768,65.362 339.69,65.49 345.941,65.49 349,65.405 
	351.978,65.297 354.909,65.147 357.8,64.934 360.625,64.719 363.365,64.42 366.083,64.078 368.739,63.712 369.465,63.412 
	369.681,62.899 370.174,58.875 370.279,58.146 369.917,57.441 369.016,56.733 367.647,56.091 366.213,55.62 343.648,50.547 
	346.646,50.44 349.557,50.249 352.426,50.035 355.208,49.82 357.906,49.498 360.56,49.113 363.066,48.642 365.548,48.171 
	367.905,47.657 368.503,47.294 368.631,46.758 369.232,42.028 368.781,41.321 367.839,40.658 366.578,40.036 365.141,39.631 
	340.975,34.15 342.621,33.828 344.934,33.337 347.075,32.758 349.152,32.138 351.164,31.497 352.983,30.746 354.761,29.932 
	356.407,29.141 356.792,28.628 357.393,23.938 357.092,23.21 356.174,22.419 354.867,21.755 353.305,21.307 349.194,20.342 
	338.149,17.816 336.97,17.368 336.607,16.788 336.928,15.29 337.164,13.814 337.25,12.272 337.183,10.666 336.97,9.039 
	336.607,7.392 336.156,5.657 335.538,3.945 334.787,2.169 334.23,1.526 333.311,0.884 332.025,0.328 330.635,0.285 329.35,0.434 
	328.302,0.69 325.925,1.784 323.698,2.831 321.557,3.987 319.588,5.1 318.089,5.979 317.66,6.235 315.928,7.435 314.302,8.634 
	312.823,9.832 311.433,11.094 310.619,11.394 309.377,11.309 295.998,8.312 294.521,8.077 292.981,8.12 291.568,8.354 
	290.603,8.783 289.747,14.048 289.918,15.247 290.197,16.511 290.583,17.753 291.159,18.994 291.802,20.236 292.572,21.456 
	293.494,22.677 294.222,23.533 268.876,17.773 267.527,17.582 266.071,17.582 264.724,17.73 263.696,18.095 263.201,18.523 
	262.668,23.253 262.668,23.789 263.353,24.752 263.566,25.031 264.638,26.315 265.771,27.577 267.035,28.861 268.425,30.104 
	269.924,31.325 271.508,32.544 273.156,33.742 274.976,34.941 251.065,29.484 249.652,29.312 248.112,29.291 246.761,29.484 
	245.757,29.889 245.329,30.36 244.816,35.092 244.943,35.606 246.163,36.825 247.084,37.681 247.982,37.019 252.498,35.307 
	253.955,34.279 256.353,33.357 259.135,32.866 262.132,32.866 265.151,33.294 267.935,34.193 270.375,35.412 272.045,36.696 
	277.824,41.429 279.793,44.232 280.521,47.166 278.594,63.478 280.735,63.478 283.389,63.841 285.893,64.525 288.162,65.533 
	290.455,67.694 292.294,69.943 292.486,71.526 292.424,71.698 291.843,76.471 293.408,79.039 294.585,82.036 295.056,85.057 
	294.821,88.095 294.671,88.544 293.751,97.3 293.236,100.318 292.424,103.208 290.603,106.184 287.264,113.761 286.045,115.411 
	283.732,117.272 280.735,118.728 277.159,119.713 273.22,120.163 269.068,120.055 264.957,119.413 261.084,118.236 259.434,117.466 
	258.857,117.358 253.185,116.972 252.027,116.781 247.34,116.073 246.891,117.081 247.96,117.68 249.074,118.3 250.102,118.964 
	252.927,121.79 255.495,124.764 257.209,127.099 260.461,128.789 264.229,130.01 268.298,130.61 272.322,130.544 276.046,129.902 
	279.256,128.64 281.697,126.905 283.195,124.764 283.882,121.382 284.223,121.168 285.123,120.377 285.874,119.564 286.45,118.685 
	286.729,118.3 288.355,114.617 291.098,115.303 291.63,112.605 292.444,112.006 293.258,111.192 293.899,110.379 294.5,109.502 
	294.907,108.561 295.142,107.619 295.25,106.677 295.782,102.116 295.441,99.633 295.164,99.142 298.139,92.354 300.558,91.863 
	302.934,91.007 304.945,89.871 306.444,88.458 307.428,86.917 307.793,85.569 309.27,85.784 312.61,86.212 315.842,86.511 
	318.989,86.747 321.386,86.788 "/>
<polyline fill="none" points="237.772,89.637 240.254,89.271 242.503,88.544 244.345,87.517 245.65,86.232 246.442,84.67 
	245.843,89.723 245.691,90.899 244.921,92.354 243.636,93.662 241.818,94.666 239.55,95.395 237.085,95.76 234.39,95.76 
	231.714,95.395 229.208,94.709 226.938,93.682 227.647,87.539 229.894,88.566 232.42,89.271 235.096,89.615 237.772,89.637 "/>
<polyline fill="#AFAAA5" points="222.808,89.252 223.515,83.129 223.343,81.993 222.681,87.667 222.808,89.252 "/>
<polyline fill="none" points="268.425,97.472 271.06,97.921 273.735,98.048 273.007,104.193 270.331,104.065 267.697,103.615 
	265.237,102.781 263.032,101.688 261.317,100.361 260.057,98.842 259.414,97.257 259.414,95.802 260.143,89.551 260.143,91.113 
	260.785,92.72 262.046,94.218 263.758,95.545 265.965,96.659 268.425,97.472 "/>
<polyline fill="none" points="282.663,96.872 282.253,99.633 281.377,101.026 279.985,102.288 280.713,96.145 282.106,94.924 
	282.982,93.49 282.663,96.872 "/>
<polyline fill="none" points="285.018,76.985 287.414,76.428 289.427,75.551 291.012,74.395 292.059,73.046 292.424,71.698 
	291.843,76.471 291.716,77.626 291.331,79.148 290.283,80.518 288.699,81.694 286.688,82.53 284.289,83.087 281.697,83.257 
	279.001,83.064 276.389,82.507 274.763,81.908 276.431,79.553 277.012,76.708 277.032,76.385 279.727,76.921 282.405,77.155 
	285.018,76.985 "/>
<polyline fill="none" points="235.611,65.704 237.581,66.946 239.911,67.888 239.207,73.988 236.872,73.068 234.902,71.847 
	233.384,70.391 232.462,68.873 232.099,67.223 232.805,61.081 233.17,62.75 234.068,64.291 235.611,65.704 "/>
<polyline fill="none" points="100.148,129.881 103.702,128.469 107.278,126.991 110.832,125.515 114.319,123.908 117.765,122.367 
	121.191,120.655 124.574,118.984 127.976,117.272 131.296,115.497 134.507,113.699 137.804,111.835 140.948,109.973 
	144.053,108.024 147.156,106.098 150.582,103.809 131.743,124.273 131.081,125.278 131.101,126.329 131.21,131.958 132.366,132.451 
	133.842,132.537 135.405,132.171 139.216,130.844 143.025,129.389 146.814,127.912 150.538,126.372 154.244,124.807 157.903,123.16 
	161.499,121.468 162.291,121.083 163.103,121.211 166.081,121.362 168.992,121.168 171.731,120.634 174.15,119.756 176.161,118.599 
	177.726,117.208 178.753,115.625 179.781,111.92 182.371,110.444 185.624,108.41 188.92,106.397 192.903,103.744 187.379,109.779 
	186.717,110.83 186.781,111.878 186.695,115.625 188.407,114.684 192.174,112.82 196.027,111.192 199.966,109.694 204.033,108.453 
	205.384,108.347 206.797,108.304 207.587,108.261 210.797,105.84 218.356,89.187 218.57,87.71 218.827,85.612 219.446,79.981 
	219.703,77.198 220.645,74.31 222.251,71.569 221.673,71.099 219.96,69.749 217.971,68.464 215.745,67.266 213.304,66.218 
	212.019,65.918 210.435,65.918 208.872,66.132 207.481,66.667 206.689,67.266 206.54,67.974 206.132,72.041 205.983,72.746 
	206.839,75.657 206.498,75.657 205.811,75.443 204.227,74.158 202.601,72.896 200.845,71.59 199.066,70.391 197.163,69.193 
	195.213,68.037 193.158,66.923 191.041,65.768 188.814,64.654 186.523,63.626 184.21,62.579 181.792,61.614 179.31,60.652 
	176.742,59.688 174.106,58.769 171.432,57.912 168.67,57.099 167.366,56.884 165.823,56.927 164.324,57.204 163.127,57.675 
	162.355,58.275 162.227,58.917 162.247,59.045 161.69,63.691 165.031,75.465 164.602,75.465 163.959,75.252 162.377,73.945 
	160.749,72.618 159.078,71.399 157.305,70.135 155.397,68.936 153.427,67.737 151.418,66.561 149.319,65.447 147.136,64.334 
	144.825,63.263 142.532,62.236 140.114,61.186 137.652,60.182 135.105,59.24 132.472,58.298 129.818,57.419 127.034,56.585 
	125.729,56.37 124.23,56.391 122.732,56.67 121.449,57.185 120.721,57.804 120.593,58.403 120.655,58.554 120.098,63.156 
	123.524,75.743 123.375,75.786 122.347,75.551 120.655,74.31 118.815,73.046 116.887,71.827 114.854,70.67 112.735,69.535 
	110.53,68.445 108.195,67.331 105.757,66.389 103.231,65.381 100.641,64.439 97.965,63.541 95.181,62.665 92.312,61.829 
	89.4,61.081 86.403,60.352 85.057,60.182 83.578,60.287 82.145,60.567 81.01,61.081 80.281,61.657 80.176,62.257 79.683,67.009 
	82.251,76.856 81.245,76.728 78.783,75.786 76.301,74.866 73.688,74.031 70.971,73.216 68.209,72.489 65.34,71.761 62.365,71.099 
	59.304,70.499 56.201,69.92 53.052,69.406 49.777,68.958 46.501,68.55 44.941,68.507 43.291,68.764 41.943,69.301 41.087,69.9 
	40.916,70.584 40.06,77.649 36.697,77.82 32.631,78.097 28.5,78.397 24.39,78.783 20.237,79.253 16.146,79.747 12.016,80.26 
	7.95,80.903 3.839,81.565 2.532,81.931 1.484,82.401 0.842,83.001 0.734,83.963 0.285,88.716 0.69,89.529 1.57,90.065 4.759,91.241 
	8.036,92.249 11.417,93.191 14.842,94.068 18.416,94.86 22.035,95.522 25.717,96.079 29.462,96.53 31.326,96.722 24.795,103.744 
	24.091,104.793 24.132,105.84 23.681,110.616 24.39,111.45 25.695,111.92 27.279,111.9 31.132,111.192 34.985,110.508 
	38.775,109.717 42.648,108.795 46.459,107.81 50.292,106.763 54.06,105.606 57.785,104.408 61.509,103.144 65.212,101.796 
	70.434,99.655 53.461,117.851 52.794,118.836 52.774,119.84 52.324,124.594 52.794,125.43 53.846,125.963 55.235,126.092 
	56.777,125.901 60.738,124.701 64.677,123.417 68.572,122.11 72.447,120.72 76.301,119.264 83.879,116.096 87.603,114.469 
	91.284,112.734 94.882,110.915 98.414,109.095 101.926,107.19 105.37,105.221 109.48,102.781 89.187,124.659 88.524,125.749 
	88.483,126.776 88.012,131.552 88.652,132.343 89.81,132.856 91.284,132.899 92.827,132.579 96.508,131.272 100.148,129.881 "/>
<path fill="none" stroke="#FFFFFF" stroke-width="0.57" stroke-linecap="round" stroke-linejoin="round" d="M252.841,377.6
	l0.279-7.898 M211.462,369.444l-0.235,8.241l0.856,2.868l2.249,2.698 M211.825,421.869l-0.191-4.387l-0.108-3.126l-0.149-2.098
	l-0.28-3.533l-0.491-4.344l-0.493-4.39l-0.643-4.367l-0.729-4.324l-0.856-4.324l-1.584-7.085 M255.154,389.782l0.665-4.367
	l0.962-5.46 M254.577,394.405l0.128-1.049 M254.705,393.355l0.449-3.574 M253.356,420.521l-0.022-4.389l0.022-4.345l0.169-4.409
	l0.302-4.39l0.321-4.43l0.429-4.154 M209.642,371.734l-1.798,1.692l-1.263,1.799l-0.579,1.884l-0.02,1.883l0.684,1.841l1.244,1.776
	l1.903,1.627l2.354,1.498l2.911,1.264l3.277,1.07l3.615,0.792l3.877,0.514l4,0.171l4.047-0.042l3.983-0.406l3.873-0.643l3.554-0.964
	l3.296-1.133l2.825-1.413l2.376-1.584l1.756-1.692l1.241-1.818l0.557-1.884v-1.884l-0.707-1.821l-1.243-1.776l-1.903-1.626
	 M253.506,370.858l-0.407-0.257 M253.506,429.062l-0.15-8.542 M211.825,421.869l0.194,8.562l0.878,2.506l2.225,2.269l3.426,1.927
	l4.432,1.433l5.094,0.792l5.396,0.191l5.352-0.533l4.942-1.135l4.177-1.69l3.145-2.121l1.908-2.44l0.513-2.546 M283.666,434.456
	l-30.31-22.24 M220.883,454.045l-38.899-29.028 M283.882,447.472l-0.216-13.016l-62.783,19.589l0.277,13.036l-38.875-29.071
	l-0.301-12.993l29.584-9.119 M283.882,447.452l-33.31,10.446l-15.199,4.751l-14.213,4.432"/>
<path fill="none" stroke="#FFFFFF" stroke-width="0.57" stroke-linecap="round" stroke-linejoin="round" d="M216.129,333.031
	l2.889,1.35l5.717,1.818l5.95,1.393l6.186-0.257l6.421-1.135l5.246-1.604l3.66-2.055l2.269-2.292l0.279-2.032 M213.518,318.988
	l0.235-4.173l0.149-4.09l0.022-4.153l-0.257-8.306l-0.277-4.152l-0.365-4.154l-0.319-2.696l-0.258-2.099l-0.9-6.079
	 M255.326,320.167l0.341-4.133l0.385-4.11l0.024-1.071 M256.076,310.853l0.599-4.066l0.729-4.087l0.812-4.025l0.92-4.004l1.049-3.96
	l1.048-3.939l1.265-3.918 M216.985,267.826l-3.767,3.961l-1.285,2.098l-0.557,2.247l-0.042,2.249l0.685,2.269l1.243,2.226
	l1.903,2.118l2.376,1.95l2.912,1.712l3.296,1.52l3.66,1.178l3.853,0.856l4.069,0.535l4.047,0.171l4.024-0.191l3.895-0.514
	l3.596-0.899l3.296-1.178l2.848-1.499l2.396-1.755l1.778-1.948l1.285-2.077l0.535-2.226v-2.27l-0.662-2.269l-1.285-2.227
	l-2.484-2.697 M254.747,328.215l0.557-8.048 M213.54,318.988l-0.515,8.048l0.878,3.083l2.227,2.911 M211.72,319.672l1.842-1.241
	 M257.489,322.712l-2.227-1.841 M214.332,383.251l4.025,1.435l7.083,1.604l7.301,0.236l5.737-0.941l6.637-2.035l4.324-2.546
	l3.424-3.425 M211.44,369.444l0.086-4.217l0.022-4.216l-0.022-1.285l-0.105-2.976l-0.257-4.195l-0.28-4.259l-0.385-4.238
	l-0.535-4.196l-0.321-2.183l-0.299-2.098l-1.156-6.702 M256.547,340.138l1.241-5.608 M257.788,334.529l0.662-2.76 M253.121,369.702
	l0.235-4.238l0.194-3.619l0.169-2.119l0.277-2.72l0.451-3.553l0.258-2.098l0.363-2.804l0.75-4.561l0.729-3.853 M211.568,319.93
	l-1.798,1.862l-1.283,1.97l-0.576,2.098v2.141l0.684,2.097l1.241,2.076l1.884,1.927l2.374,1.777l2.912,1.584l3.298,1.327
	l3.638,1.028l3.877,0.748l4,0.385l4.091,0.109l4-0.279l3.877-0.577l3.574-0.9l3.276-1.179l2.846-1.476l2.376-1.67l1.798-1.884
	l1.243-1.969l0.557-2.097l-0.024-2.141l-0.704-2.098l-1.241-2.078"/>
<path fill="none" stroke="#FFFFFF" stroke-width="0.57" stroke-linecap="round" stroke-linejoin="round" d="M259.905,130.801
	l22.329,5.117l1.155,0.471l0.601,0.791l0.257,0.836l0.277,0.856l0.341,0.813l0.986,3.36l1.327,3.319l1.521,3.339l1.798,3.273
	l2.056,3.233l2.247,3.169l1.199,1.155l1.541,0.705l1.542,0.194l1.349-0.342l0.834-0.879l0.193-1.176l-1.371-14.236l0.277-0.685
	l0.794-0.257l0.984,0.385l0.621,0.728l1.435,3.168l1.433,3.147l1.584,3.169l1.606,3.125l1.756,3.188l1.776,3.105l1.906,3.083
	l1.969,3.103l2.055,3.04l2.141,3.083l2.161,2.996l2.227,3.04l2.354,2.978l2.44,2.954l2.482,2.931l2.548,2.911l2.612,2.849
	l1.263,1.004l1.455,0.579l1.499,0.063l1.199-0.406l0.792-0.879l0.172-1.133l-3.338-32.581l0.255-0.665l0.814-0.234l0.984,0.363
	l0.621,0.686l1.413,3.253l1.479,3.19l1.541,3.189l1.648,3.21l3.596,6.336l1.864,3.126l1.989,3.167l2.055,3.062l2.141,3.146
	l2.183,3.04l2.269,3.04l2.354,3.019l2.44,3.017l2.506,2.977l2.546,2.974l2.634,2.911l1.263,0.963l1.455,0.599l1.479,0.109
	l1.261-0.385l0.729-0.9l0.171-1.178l-3.66-34.314l0.491-0.79l1.18,0.042l1.003,0.877l1.584,3.21l1.692,3.169l1.842,3.21l1.925,3.169
	l1.97,3.167l2.099,3.148l2.203,3.061l2.354,3.06l2.421,3.04l2.44,2.977l2.59,2.954l2.654,2.911l5.565,5.737l2.911,2.761l1.307,0.856
	l1.413,0.537h1.413l1.133-0.471l0.687-0.836l0.149-1.133l-3.147-28.558l0.385-0.748l1.069-0.085l1.008,0.685l2.355,2.868
	l2.333,2.869l2.548,2.803l2.59,2.718l2.676,2.763l2.74,2.589l2.87,2.612l2.931,2.548l2.997,2.503l3.061,2.378l3.188,2.354
	l3.168,2.29l1.499,0.728l1.606,0.193l1.325-0.385l0.836-0.856l0.171-1.178l-1.454-12.95l0.407-0.856l1.175,0.02l3.963,1.393
	l3.939,1.327l3.981,1.199l3.981,1.047l4.002,0.942l3.961,0.856l3.983,0.708l3.893,0.621l3.985,0.473l1.283-0.066l0.986-0.514
	l0.618-0.836l0.024-0.747l-0.471-0.836l-0.88-0.899l-6.465-4.667l-3.382-2.224l-3.382-2.249l-3.488-2.226l-3.534-2.119l-3.616-2.12
	l-3.62-2.055l-3.702-1.989l-0.9-0.728l0.172-0.6l8.285-4.111l0.577-0.6l-0.149-0.856l-0.749-0.984l-1.285-0.942l-1.521-0.665
	l-3.615-1.157l-3.64-1.133l-3.554-1.027l-3.64-0.964l-3.576-0.877l-3.554-0.856l-3.53-0.708l-3.49-0.686l-3.446-0.62l-3.448-0.514
	l-3.36-0.408l-3.36-0.362l-1.135-0.386l-0.707-0.708l0.152-0.577l18.43-8.948l0.557-0.536l-0.064-0.77l-0.537-0.899l-1.048-0.857
	l-1.327-0.728l-1.435-0.471l-3.703-0.791l-3.596-0.729l-3.662-0.665l-3.574-0.577l-3.576-0.494l-3.488-0.428l-3.468-0.342
	l-3.448-0.385l-3.402-0.191l-3.296-0.152l-3.254-0.084l-3.211-0.043l-3.168,0.108l-3.083,0.105l-2.997,0.214l-1.241-0.277
	l-0.898-0.75l0.106-0.62l22.349-10.703l0.535-0.514l-0.022-0.813l-0.685-0.943l-1.133-0.878l-1.393-0.706l-1.477-0.428l-3.576-0.58
	l-3.51-0.514l-3.532-0.471l-3.49-0.405l-3.424-0.343l-3.404-0.279l-3.318-0.256l-3.36-0.191l-3.277-0.108l-3.252-0.107h-3.188
	l-3.168,0.086l-3.105,0.043l-3.061,0.148l-2.975,0.215l-2.956,0.256l-2.931,0.3l-0.856-0.107l-0.922-0.45l-0.449-0.621l0.216-0.45
	l21.363-10.082l0.577-0.557l-0.086-0.813l-0.618-0.899l-1.114-0.879l-1.413-0.706l-1.479-0.428l-3.532-0.6l-3.532-0.514
	l-3.468-0.514l-3.488-0.407l-3.426-0.363l-3.362-0.323l-3.316-0.256l-3.338-0.191l-3.276-0.152l-3.255-0.085l-3.188-0.042
	l-3.125,0.022l-3.127,0.043l-2.997,0.129l-3.039,0.191l-2.891,0.256l-2.931,0.3l-0.878-0.15l-0.9-0.471l-0.449-0.599l0.216-0.429
	l9.438-4.409l0.579-0.6l-0.108-0.814l-0.748-1.007l-1.221-0.877l-1.499-0.708l-1.561-0.342l-3.492-0.277l-3.382-0.085l-3.297,0.105
	l-3.059,0.279l-2.933,0.363l-2.742,0.622l-0.919,0.535l-0.898,0.557l-0.878,0.599l-1.092,0.386l-1.327-0.086l-2.956-0.686
	 M262.09,145.829l1.82,0.75l1.948,0.234l1.969-0.234l1.82-0.75l1.562-1.219l1.199-1.563l0.277-0.62 M267.549,172.439l0.513-3.854
	l0.856-5.246 M268.918,163.339l0.748-3.702l0.922-3.982l1.006-3.918l1.135-3.917l0.427-1.306l1.457-4.453 M252.691,146.514
	l6.337-0.148 M249.373,141.741l3.426,0.406 M267.226,174.985l0.323-2.546 M248.24,191.726l3.34-0.064l5.028-0.985l3.34-1.37
	 M262.668,221.438l0.427-4.087l0.493-4.091 M264.381,208.316l0.856-4.07l0.875-4.002l1.052-3.958l0.897-3.126 M263.588,213.26
	l0.108-0.918 M263.696,212.341l0.685-4.025 M270.632,185.346l0.771-3.083l-0.022-2.354l-0.687-2.355l-1.283-2.29l-1.947-2.249
	 M249.738,194.594l1.842-0.086l3.915-0.491l3.64-0.879l4.066-1.434 M238.199,240.381l3.34,0.385l5.394-0.191l5.033-1.007
	l4.238-1.755l3.21-2.375l1.948-2.846l0.513-3.127l0.772-8.027 M216.858,269.731l0.191-4.176l0.172-4.152v-4.216l-0.086-4.152
	l-0.15-4.176l-0.257-4.173l-0.321-3.32 M264.766,237.236l1.241-3.939 M262.646,245.2l1.369-5.203 M264.016,239.997l0.75-2.761
	 M258.6,269.795l0.407-4.13l0.557-4.132l0.598-4.111l0.75-4.109l0.792-4.045l0.941-4.067 M266.007,233.297l0.557-2.226v-2.269
	l-0.706-2.249l-1.263-2.204l-2.033-2.206 M239.227,243.123l3.576,0.172l4.066-0.193l3.897-0.536l3.615-0.857l3.299-1.176
	l2.847-1.521l2.418-1.69l2.848-3.083 M216.321,277.844l0.88,3.062l2.245,2.911l3.468,2.526l4.454,1.99l5.136,1.307l5.461,0.577
	l5.394-0.258l4.986-1.027l4.263-1.755l3.167-2.354l1.928-2.741l0.535-3.039l0.363-5.416v-3.833 M216.858,269.731l-0.537,8.092"/>
<path fill="none" stroke="#FFFFFF" stroke-width="0.57" stroke-linecap="round" stroke-linejoin="round" d="M460.55,217.927
	l0.473,0.02l3.961,1.371l3.961,1.306l3.981,1.199l3.959,1.047l4.024,0.965l3.939,0.813l3.961,0.728l3.939,0.62l3.961,0.493
	l1.263-0.086l1.006-0.493l0.599-0.856 M420.608,200.887l1.413,1.007l2.333,2.889l2.354,2.849l2.526,2.803l2.612,2.76l2.676,2.677
	l2.762,2.655l2.848,2.589l2.953,2.568l2.995,2.506l3.063,2.374l3.146,2.313l3.188,2.335l1.523,0.727l1.582,0.172l1.329-0.363
	l0.812-0.879 M380.748,185.174l0.643,0.043l0.986,0.856l1.604,3.212l1.692,3.19l1.817,3.211l1.928,3.188l1.97,3.126l2.097,3.125
	l2.227,3.103l2.335,3.04l2.396,3.019l2.46,3.04l2.57,2.954l2.654,2.892l2.784,2.845l2.804,2.847l2.914,2.806l1.303,0.833
	l1.413,0.537l1.413,0.02l1.094-0.469l0.729-0.858l0.127-1.09 M340.761,167.343l0.984,0.386l0.621,0.706l1.413,3.19l1.477,3.254
	l1.542,3.188l1.646,3.148l1.778,3.167l1.82,3.169l1.861,3.188l1.992,3.125l2.055,3.106l2.139,3.125l2.185,3.017l2.269,3.063
	l2.355,3.039l2.42,2.995l2.526,2.977l2.524,2.931l2.656,2.934l1.261,0.962l1.457,0.643l1.477,0.065l1.243-0.342l0.749-0.899
	l0.149-1.179 M300.472,148.634l1.091,0.385l0.623,0.705l1.433,3.191l1.435,3.168l1.584,3.146l1.604,3.168l1.756,3.125l1.778,3.105
	l1.884,3.103l1.969,3.125l2.075,3.063l2.122,3.017l2.161,3.04l2.269,3.02l2.334,2.954l2.417,2.974l2.484,2.934l2.548,2.931
	l2.632,2.806l1.241,1.005l1.457,0.6l1.499,0.105l1.197-0.426l0.772-0.878l0.194-1.134 M263.01,136.218l18.687,4.239l1.138,0.514
	l0.599,0.77l0.299,0.942l0.343,0.985l0.812,2.974l1.071,3.02l1.261,2.911l1.457,2.955l1.67,2.931l1.861,2.911l2.014,2.826
	l1.219,1.156l1.521,0.708l1.541,0.191l1.371-0.385l0.814-0.834l0.191-1.178 M304.712,129.668l24.487,11.346l24.468,11.345
	l12.182,5.672l12.264,5.631l24.448,11.346l24.426,11.345l12.244,5.652l12.18,5.671l24.446,11.303l24.404,11.323 M296.425,113.312
	l8.288,16.355l-19.847,10.018"/>
<path fill="none" stroke="#FFFFFF" stroke-width="0.57" stroke-linecap="round" stroke-linejoin="round" d="M222.229,71.612
	l-0.557-0.514l-1.712-1.35l-1.989-1.284l-2.227-1.198l-2.44-1.048l-1.285-0.299h-1.584l-1.562,0.213l-1.391,0.535l-0.792,0.6
	l-0.149,0.708l1.989,6.935l-0.213,0.406l-0.834,0.323l-0.984,0.02l-0.687-0.213l-1.584-1.285l-1.626-1.262l-1.756-1.306
	l-1.778-1.199l-1.903-1.198l-1.95-1.156l-2.055-1.114l-2.117-1.155l-2.227-1.113l-2.291-1.028l-2.313-1.047l-2.418-0.965
	l-2.482-0.962l-2.568-0.965l-2.636-0.918l-2.674-0.857l-2.762-0.813l-1.305-0.214l-1.543,0.042l-1.499,0.277l-1.197,0.471
	l-0.772,0.6l-0.128,0.643l4.452,15.797l-0.255,0.428l-0.814,0.3l-1.008,0.022l-0.643-0.213l-1.582-1.307l-1.628-1.327l-1.67-1.219
	l-1.773-1.264l-1.908-1.199l-1.97-1.198l-2.009-1.176l-2.1-1.114l-2.183-1.113l-2.311-1.071l-2.293-1.027l-2.418-1.05l-2.462-1.004
	l-2.546-0.942l-2.634-0.942l-2.654-0.879l-2.784-0.834l-1.305-0.215l-1.499,0.021l-1.499,0.279l-1.283,0.514l-0.729,0.619
	l-0.127,0.6l4.515,16.591l-0.515,0.535l-1.219,0.256l-1.028-0.234l-1.692-1.241l-1.84-1.264l-1.928-1.219l-2.033-1.156l-2.119-1.135
	l-2.205-1.09l-2.334-1.114l-2.438-0.942l-2.526-1.008l-2.59-0.942l-2.676-0.899l-2.784-0.875l-2.87-0.836L89.4,61.081l-2.997-0.729
	l-1.347-0.17l-1.479,0.105l-1.433,0.28l-1.135,0.514l-0.729,0.577l-0.105,0.6l3.596,13.786l-0.407,0.536l-1.091,0.277l-1.028-0.128
	l-2.462-0.942l-2.482-0.92l-2.612-0.835l-2.718-0.814l-2.762-0.727l-2.869-0.729l-2.975-0.662l-3.061-0.6l-3.103-0.579l-3.149-0.514
	l-3.274-0.448l-3.276-0.408l-1.56-0.043l-1.65,0.256l-1.347,0.537l-0.856,0.6l-0.171,0.684l1.518,6.251l-0.405,0.514l-1.221,0.257
	l-4.111,0.213l-4.066,0.277l-4.13,0.3l-4.111,0.385l-4.152,0.471l-4.091,0.493l-4.13,0.514L7.95,80.903l-4.111,0.663l-1.307,0.365
	l-1.047,0.471l-0.643,0.6l-0.108,0.962l0.407,0.793l0.834,0.557l3.235,1.176l3.274,1.008l3.38,1.004l3.448,0.813l3.574,0.771
	l3.598,0.665l3.703,0.577l3.726,0.428l3.831,0.428l0.878,0.408l-0.238,0.856l-9.59,10.296l-0.704,1.049l0.042,1.047l0.729,0.856
	l1.285,0.451h1.604l3.831-0.684l3.875-0.729l3.809-0.793l3.853-0.918l3.833-0.985l3.789-1.051l3.768-1.113l3.748-1.241l3.745-1.284
	l3.704-1.348l3.596-1.479l3.64-1.476l1.199-0.172l0.729,0.471l-0.238,0.771l-21.169,22.734l-0.667,0.985l-0.02,1.004l0.515,0.814
	l1.047,0.536l1.369,0.129l1.523-0.215l3.981-1.178l3.939-1.284l3.917-1.305l3.875-1.413l3.853-1.456l3.787-1.521l3.77-1.604
	l3.724-1.65l3.681-1.69l3.598-1.82l3.554-1.862l3.51-1.907l3.468-1.989l3.338-1.993l3.321-2.075l1.285-0.322l0.917,0.408
	l-0.191,0.856l-25.368,27.358l-0.663,1.09l-0.042,1.027l0.64,0.793l1.158,0.492l1.474,0.085l1.584-0.299l3.877-1.413l3.809-1.518
	l3.831-1.499l3.748-1.584l3.726-1.606l3.701-1.627l3.64-1.712l3.662-1.756l3.554-1.798l3.552-1.884l3.446-1.884l3.426-1.947
	l3.404-1.949l3.338-2.033l3.232-2.077l3.232-2.098l3.167-2.183l0.922-0.342l0.983,0.085l0.429,0.537l-0.257,0.643l-24.019,26.073
	l-0.662,1.004l0.02,1.051l0.601,0.813l1.155,0.514l1.479,0.105l1.584-0.342l3.809-1.348l3.789-1.456l3.79-1.499l3.745-1.499
	l3.704-1.583l3.66-1.67l3.618-1.649l3.576-1.756l3.554-1.755l3.529-1.841l3.448-1.841l3.36-1.904l3.404-1.97l3.254-2.012
	l3.274-2.034l3.147-2.075l3.188-2.098l0.922-0.366l0.962,0.066l0.451,0.534l-0.258,0.643l-10.468,11.473l-0.662,1.051l0.063,1.048
	l0.749,0.856l1.285,0.451h1.584l1.648-0.494l3.767-1.798l3.662-1.905l3.53-2.054l3.34-2.163l3.191-2.312l2.953-2.417l1.263-0.708
	 M290.774,109.117l3.041-2.483l1.435-2.163l0.532-2.354l-0.341-2.483l-1.305-2.397 M300.879,163.854l0.385-3.64 M343.03,200.867
	l0.427-3.662 M383.359,220.302l0.535-3.744 M422.705,230.643l0.493-3.662 M460.724,232.869l0.663-4.752 M499.577,225.055
	l0.684-4.753 M475.217,196.863l0.662-4.73 M446.616,172.953l0.643-4.732 M412.131,151.931l0.641-4.752 M371.844,133.712l0.618-4.773
	 M319.887,120.848l0.579-4.795 M263.458,142.298l3.382,0.471l4.025-0.023l3.767-0.684l5.161-2.033 M342.366,183.805l2.354-0.448
	l2.396-0.922l1.542-0.899 M384.559,190.355l-0.814,0.45l-2.291,0.899 M318.646,122.132l1.241-1.284 M357.734,140.691l13.553-6.443
	l0.557-0.536 M396.31,159.786l15.307-7.321l0.515-0.534 M433.259,179.737l12.82-6.228l0.537-0.557 M470.421,199.604l4.238-2.119
	l0.557-0.622"/>
<path fill="none" stroke="#FFFFFF" stroke-width="0.57" stroke-linecap="round" stroke-linejoin="round" d="M178.753,115.625
	l-1.028,1.583l-1.564,1.391l-2.011,1.157l-2.418,0.878l-2.74,0.535l-2.911,0.194l-2.978-0.151l-0.812-0.129 M178.753,115.625
	l1.027-3.705 M295.25,106.677l-0.108,0.942l-0.235,0.942l-0.407,0.942l-0.601,0.877l-0.641,0.813l-0.814,0.814l-0.962,0.728
	l-1.052,0.665l-1.175,0.6l-0.792,0.299 M207.587,108.261l3.21-2.421 M131.21,131.958l1.155,0.493l1.477,0.086l1.562-0.366
	l3.812-1.327l3.809-1.456l3.789-1.477l3.724-1.541l3.706-1.564l3.66-1.647l3.596-1.692l3.574-1.712l3.554-1.776l3.534-1.841
	l3.468-1.864l3.338-1.905l3.404-1.927l3.252-2.034l3.296-2.012l3.983-2.654 M88.012,131.552l0.641,0.791l1.157,0.514l1.475,0.043
	l1.542-0.32l3.682-1.307l3.64-1.391l3.554-1.413l3.576-1.478l3.554-1.477l3.488-1.606l3.446-1.542l3.426-1.712l3.382-1.67
	l3.402-1.712l3.32-1.776l3.21-1.798l3.297-1.864l3.145-1.862l3.105-1.949l3.103-1.926l3.426-2.29 M52.324,124.594l0.471,0.836
	l1.052,0.534l1.389,0.129l1.542-0.191l3.961-1.2l3.939-1.284l3.895-1.307l3.875-1.391l3.854-1.456l7.579-3.167l3.723-1.627
	l3.682-1.735l3.598-1.819l3.532-1.82l3.512-1.905l3.444-1.969l4.111-2.44 M23.681,110.616l0.708,0.834l1.305,0.471l1.584-0.021
	l3.853-0.708l3.853-0.685l3.79-0.791l3.873-0.922l3.811-0.985l3.833-1.047l3.767-1.156l3.726-1.198l3.724-1.264l3.703-1.348
	l5.222-2.141 M0.285,88.716l0.405,0.813l0.88,0.536l3.188,1.176l3.277,1.008l3.382,0.942l3.424,0.877l3.574,0.792l3.62,0.663
	l3.682,0.557l3.745,0.451l1.864,0.191 M79.683,67.009l2.568,9.847 M120.098,63.156l3.426,12.587 M161.69,63.691l3.34,11.774
	 M206.132,72.041l-0.149,0.705l0.856,2.911 M204.462,83.792l-25.623-0.107l-25.56-0.108l-12.737-0.02l-12.758-0.066l-25.454-0.127
	l-25.451-0.043l-12.715-0.086l-12.653-0.021l-25.366-0.108L0.842,83.001 M212.49,100.041l-8.027-16.249l15.626-7.708"/>
<path fill="none" stroke="#FFFFFF" stroke-width="0.57" stroke-linecap="round" stroke-linejoin="round" d="M293.172,100.318
	l8.219-18.625l0.665-0.643l1.243-0.234l1.347-0.064l1.369-0.043l1.351-0.106l3.809,0.577l3.684,0.428l3.574,0.279l3.468,0.148h3.296
	l3.125-0.105l0.983-0.215l0.344-0.557l-0.277-0.708l-0.922-0.79l-1.327-0.707l-1.584-0.449l-17.125-3.876l-0.942-0.319l-0.577-0.514
	l0.128-0.365l0.684-0.063l3.446,0.299l3.362,0.277l3.402,0.213l3.296,0.215l3.296,0.128l3.191,0.128l3.169,0.043l3.168-0.02
	l3.039-0.043l3.041-0.065l2.953-0.149l2.912-0.128l2.825-0.214l2.804-0.279l2.72-0.299l2.676-0.32l2.568-0.408l0.792-0.299
	l0.172-0.557l-0.365-0.686l-0.942-0.728l-1.327-0.685l-1.477-0.428l-38.811-8.754l-0.961-0.365l-0.579-0.471l0.127-0.363
	l0.685-0.108l3.468,0.342l3.468,0.3l3.34,0.256l3.362,0.237l3.252,0.129l3.274,0.105l3.21,0.066l3.191,0.042l3.061-0.042
	l3.083-0.086l2.953-0.066l2.955-0.213l2.89-0.172l2.828-0.256l2.74-0.3l2.717-0.256l2.634-0.385l0.748-0.301l0.213-0.557
	l-0.363-0.705l-0.9-0.708l-1.369-0.643l-1.435-0.471l-40.675-9.162l-1.133-0.491l-0.365-0.58l0.729-0.233l3.382,0.256l3.341,0.191
	l3.296,0.128l3.21,0.086l3.149,0.043l3.081-0.021l3.02-0.151l2.911-0.128l2.848-0.234l2.784-0.237l2.74-0.363l2.612-0.364
	l2.524-0.449l2.484-0.428l2.354-0.557l0.599-0.365l0.13-0.534l-0.451-0.708l-0.942-0.663l-1.261-0.623l-1.437-0.405l-33.628-7.644
	l-1.094-0.428l-0.471-0.534l0.515-0.279l2.72-0.234l2.674-0.214l2.548-0.366l2.462-0.385l2.354-0.406l2.269-0.536l2.163-0.577
	l2.097-0.622l2.014-0.643l1.817-0.729l1.756-0.77l1.67-0.834l0.385-0.493l-0.301-0.728l-0.918-0.791l-1.307-0.665l-1.562-0.448
	l-15.155-3.491l-1.18-0.448l-0.363-0.58l0.321-1.499l0.235-1.476l0.086-1.542l-0.066-1.606l-0.213-1.627l-0.363-1.647l-0.451-1.735
	l-0.618-1.712l-0.75-1.776l-0.557-0.643l-0.919-0.643l-1.285-0.556l-1.391-0.043l-1.285,0.148l-1.048,0.256l-2.376,1.094
	l-2.227,1.047l-2.141,1.156L319.588,5.1l-1.928,1.135l-1.732,1.199l-1.626,1.199l-1.479,1.198l-1.391,1.262l-0.814,0.299
	l-1.241-0.085l-13.379-2.997l-1.477-0.234l-1.541,0.043l-1.413,0.234l-0.966,0.428l-0.277,0.536l0.171,1.242l0.277,1.219
	l0.385,1.241l0.537,1.242l0.685,1.241l0.748,1.241l0.922,1.242l1.027,1.156l1.133,1.241l1.266,1.198l1.454,1.18l1.477,1.176
	l0.022,0.385l-0.878,0.237l-1.133-0.086l-29.542-6.702l-1.349-0.191h-1.457l-1.347,0.148l-1.028,0.365l-0.495,0.428v0.535
	l0.922,1.264l1.072,1.261l1.114,1.264l1.283,1.262l1.371,1.264l1.518,1.242l1.565,1.219l1.69,1.178l1.798,1.219l1.925,1.155
	l2.036,1.156l2.097,1.092l2.247,1.157l2.335,1.113l2.374,1.047l0.258,0.45l-0.834,0.3l-1.283-0.086l-35.622-8.134l-1.413-0.171
	l-1.54-0.022l-1.351,0.193l-1.004,0.405l-0.429,0.471l0.171,0.537l1.261,1.262l1.371,1.198l1.435,1.264l1.562,1.219h-0.044
	 M259.434,117.466l1.65,0.771l3.873,1.176l4.111,0.643l4.152,0.107l3.939-0.45l3.576-0.985l2.998-1.456l2.312-1.862l1.219-1.649
	l3.338-7.577 M295.142,107.619l0.64-5.502 M206.132,72.041l0.557-4.774 M161.69,63.691l0.665-5.417 M120.098,63.156l0.623-5.352
	 M88.012,131.552l0.471-4.775 M52.324,124.594l0.451-4.753 M79.683,67.009l0.493-4.752 M40.916,70.584l-0.856,7.065 M23.681,110.616
	l0.451-4.775 M0.285,88.716l0.449-4.753 M186.781,111.878l-0.086,3.748 M131.21,131.958l-0.11-5.629 M291.098,115.303l0.532-2.675"
	/>
<path fill="none" stroke="#FFFFFF" stroke-width="0.57" stroke-linecap="round" stroke-linejoin="round" d="M285.874,119.564
	l-0.75,0.813l-0.9,0.791l-1.028,0.685l-1.133,0.642l-1.221,0.579l-1.327,0.492l-1.391,0.407l-1.521,0.32l-1.519,0.258l-1.584,0.17
	l-1.648,0.043h-1.648l-1.692-0.128l-1.626-0.191l-1.648-0.257l-1.648-0.365l-1.542-0.491l-1.519-0.514l-1.435-0.579l-1.371-0.705
	l-1.285-0.729l-1.156-0.77l-1.047-0.857l-0.964-0.899l-0.814-0.899l-0.429-0.6 M286.45,118.685l0.28-0.385 M286.45,118.685
	l-0.576,0.879 M236.423,49.606l1.177,1.285l1.349,1.262l1.413,1.221l1.113,0.899 M244.816,35.092l0.127,0.514l1.219,1.219
	l0.922,0.856 M262.668,23.253v0.536l0.898,1.242l1.072,1.284l1.133,1.262l1.263,1.284l1.391,1.242l1.499,1.221l1.584,1.219
	l1.648,1.198l1.82,1.199 M289.747,14.048l0.171,1.198l0.279,1.264l0.385,1.242l0.577,1.241l0.643,1.242l0.77,1.219l0.922,1.221
	l0.729,0.856 M340.953,34.15l1.668-0.322l2.312-0.491l2.141-0.579l2.077-0.621l2.012-0.641l1.82-0.75l1.778-0.814l1.646-0.791
	l0.385-0.513 M343.648,50.547l2.997-0.107l2.912-0.191l2.869-0.214l2.782-0.214l2.698-0.322l2.654-0.385l2.506-0.471l2.482-0.471
	l2.357-0.514l0.598-0.363l0.128-0.536 M339.69,65.49h6.251L349,65.405l2.977-0.108l2.931-0.15l2.892-0.213l2.825-0.214l2.74-0.299
	l2.718-0.342l2.656-0.365l0.726-0.3l0.216-0.513 M327.893,79.361l2.421,0.043l3.127,0.021l3.081-0.043l2.997-0.106l2.956-0.085
	l2.911-0.152l2.826-0.256l2.803-0.257l2.72-0.299l2.674-0.32l2.57-0.428l0.792-0.299 M286.729,118.3l14.105-32.067l0.687-0.6
	l1.221-0.277l1.519-0.043l1.584-0.065l3.424,0.536l3.34,0.428l3.232,0.299l3.147,0.235l3.019,0.065h2.931l2.806-0.086l0.984-0.236
	l0.321-0.557 M288.871,66.196l4.751-7.299l5.587-8.52l2.784-4.218l2.782-4.259l5.523-8.414l5.479-8.326l2.742-4.219l2.72-4.13
	l5.413-8.243l5.374-8.24 M292.358,70.414l15.008,10.189 M242.78,43.504l-1.626-0.256h-1.542l-1.391,0.236l-0.964,0.406l-0.471,0.471
	l0.171,0.514l1.199,1.263l1.349,1.219l1.413,1.242l1.092,0.942"/>
<path fill="none" stroke="#FFFFFF" stroke-width="0.57" stroke-linecap="round" stroke-linejoin="round" d="M266.863,115.583
	l2.804,0.428l3.019-0.023l2.762-0.513l2.376-0.92l1.82-1.307l1.111-1.584l0.365-1.733l0.515-4.367 M298.161,92.354l2.396-0.492
	l2.376-0.856l2.011-1.136l1.499-1.413l0.984-1.542l0.365-1.37"/>
<polyline fill="none" points="281.483,105.584 281.483,105.563 280.37,107.147 278.552,108.453 276.176,109.375 273.392,109.846 
	270.395,109.865 267.591,109.48 266.863,115.583 269.667,116.01 272.686,115.987 275.447,115.475 277.824,114.555 279.644,113.248 
	280.755,111.663 281.12,109.93 281.635,105.542 281.483,105.584 "/>
<polyline fill="none" stroke="#FFFFFF" stroke-width="0.57" stroke-linecap="round" stroke-linejoin="round" points="
	281.483,105.584 281.483,105.563 280.37,107.147 278.552,108.453 276.176,109.375 273.392,109.846 270.395,109.865 267.591,109.48 
	266.863,115.583 269.667,116.01 272.686,115.987 275.447,115.475 277.824,114.555 279.644,113.248 280.755,111.663 281.12,109.93 
	281.635,105.542 281.483,105.584 "/>
<path fill="none" stroke="#FFFFFF" stroke-width="0.57" stroke-linecap="round" stroke-linejoin="round" d="M218.418,89.037
	l-8.325,18.325l-0.708,0.642l-1.219,0.234l-1.369,0.066l-1.413,0.043l-1.351,0.105l-4.067,1.241l-3.939,1.499l-3.853,1.627
	l-3.767,1.864l-3.598,1.989l-3.424,2.206l-1.114,1.09l-0.449,1.221l0.191,1.176l0.922,0.965l1.371,0.491h1.626l18.196-3.231
	l0.983,0.129l0.535,0.535l-0.171,0.793l-0.749,0.599l-3.723,1.542l-3.64,1.562l-3.682,1.65l-3.598,1.69l-3.576,1.82l-3.488,1.799
	l-3.468,1.884l-3.468,1.946l-3.338,1.969l-3.362,2.078l-3.254,2.076l-3.23,2.163l-3.191,2.226l-3.125,2.227l-3.042,2.312
	l-3.017,2.354l-2.89,2.417l-0.941,1.071l-0.299,1.199l0.343,1.136l0.897,0.834l1.371,0.45l1.541-0.043l41.612-7.321l0.986,0.085
	l0.579,0.578l-0.213,0.792l-0.729,0.535l-3.79,1.584l-3.767,1.583l-3.684,1.67l-3.682,1.735l-3.574,1.798l-3.596,1.819l-3.534,1.884
	l-3.529,2.012l-3.426,1.97l-3.404,2.097l-3.338,2.098l-3.296,2.163l-3.21,2.227l-3.21,2.29l-3.127,2.333l-3.081,2.397l-2.997,2.418
	l-0.9,1.136l-0.321,1.176l0.299,1.114l0.9,0.899l1.369,0.451l1.584-0.066l43.905-7.792l1.221,0.28l0.299,0.899l-0.836,0.877
	l-3.703,1.712l-3.682,1.735l-3.682,1.842l-3.554,1.947l-3.532,2.012l-3.468,2.077l-3.36,2.098l-3.296,2.247l-3.254,2.291
	L145.382,209l-3.105,2.377l-3.042,2.461l-2.889,2.526l-2.867,2.591l-2.74,2.611l-0.75,1.113l-0.235,1.199l0.385,1.048l0.961,0.793
	l1.307,0.428l1.542-0.043l36.646-6.508l1.136,0.195l0.429,0.833l-0.601,0.857l-3.081,2.203l-3.021,2.227l-2.931,2.354l-2.806,2.398
	l-2.717,2.483l-2.654,2.464l-2.546,2.589l-2.462,2.654l-2.354,2.677l-2.207,2.675l-2.139,2.826l-2.011,2.784l-0.515,1.286
	l0.235,1.24l0.922,0.984l1.347,0.494h1.692l16.654-2.955l1.243,0.172l0.297,0.942l-0.576,3.276l-0.471,3.273l-0.365,3.274
	l-0.191,3.234l0.02,3.296l0.108,3.211l0.277,3.188l0.431,3.191l0.597,3.169l0.515,0.984l0.964,0.706l1.347,0.385l1.457,0.28
	l1.369-0.194l1.157-0.62l2.676-2.377l2.546-2.526l2.44-2.546l2.269-2.654l2.227-2.784l2.055-2.806l1.906-2.931l1.776-2.976
	l1.692-3.04l0.9-0.62l1.285,0.385l13.12,9.804l1.499,0.749l1.584,0.17l1.499-0.405l1.069-0.963l0.409-1.307l0.042-3.253
	l-0.022-3.296l-0.15-3.234l-0.321-3.296l-0.449-3.317l-0.535-3.296l-0.729-3.233l-0.792-3.296l-0.898-3.274l-1.072-3.277
	l-1.241-3.188l-1.307-3.234l0.066-0.984l0.942-0.491l1.175,0.32l28.88,21.578l1.347,0.708l1.479,0.213l1.413-0.236l1.091-0.728
	l0.599-1.113l0.066-1.242l-0.708-3.425l-0.856-3.468l-0.92-3.402l-1.069-3.382l-1.177-3.404l-1.305-3.317l-1.393-3.363l-1.457-3.359
	l-1.626-3.255l-1.756-3.253l-1.84-3.21l-1.906-3.234l-2.077-3.146l-2.161-3.103l-2.205-3.063l-0.172-1.09l0.898-0.643l1.285,0.3
	l34.617,25.837l1.413,0.728l1.541,0.234l1.435-0.363l1.05-0.836l0.491-1.133l-0.044-1.327l-1.069-3.36l-1.199-3.384l-1.241-3.359
	l-1.369-3.317l-1.415-3.319l-1.518-3.253l-1.584-3.231l-1.692-3.277l-1.754-3.167l-1.861-3.212l-1.928-3.125l-2.011-3.126
	l-2.036-3.103l-2.161-3.062l-2.225-3.017l-2.312-2.997l-2.399-2.998l-0.299-0.793l0.385-0.729l0.9-0.233l0.962,0.319l32.838,24.427
	l1.369,0.685l1.584,0.234l1.393-0.32l1.047-0.813l0.557-1.113l-0.105-1.327l-0.983-3.319l-1.158-3.316l-1.197-3.276l-1.329-3.274
	l-1.349-3.277l-1.519-3.23l-1.521-3.168l-1.648-3.211l-1.712-3.147l-1.798-3.146l-1.864-3.106l-1.969-3.06l-2.014-3.082
	l-2.139-2.997l-2.205-3.02l-2.249-2.889l-2.333-2.933l-0.28-0.857l0.366-0.727l0.919-0.214l0.942,0.322l14.365,10.66l1.477,0.729
	l1.564,0.17l1.475-0.407l0.986-0.92l0.451-1.241l-0.28-1.393l-1.648-3.339l-1.906-3.297l-2.161-3.167l-2.378-3.083l-2.568-2.974
	l-2.825-2.826l-1.028-0.665l-1.113-0.62l-1.07-0.599l-0.792-0.729l-0.064-0.643 M329.05,85.932l0.599-4.773 M359.77,77.179
	l0.172-0.537 M359.941,76.642l0.684-4.729 M369.681,62.899l0.598-4.753 M368.631,46.758l0.601-4.73 M356.792,28.628l0.601-4.689
	 M289.747,14.048l0.856-5.266 M262.668,23.253l0.533-4.73 M244.816,35.092l0.513-4.732 M236.423,49.606l0.363-5.245
	 M257.209,127.099l3.252,1.69l3.768,1.221l4.069,0.6l4.024-0.066l3.724-0.642l3.21-1.262l2.44-1.735l1.499-2.141l0.665-3.296"/>
<path fill="none" stroke="#FFFFFF" stroke-width="0.57" stroke-linecap="round" stroke-linejoin="round" d="M246.869,117.124
	l0.471-1.051 M245.971,137.075l11.366,8.454l1.479,0.708l1.56,0.191l1.479-0.406l1.006-0.921l0.427-1.242 M234.473,170.361
	l29.694,22.072l1.391,0.705l1.562,0.213l1.391-0.299l1.069-0.813l0.537-1.156 M220.625,202.106l32.645,24.34l1.413,0.748l1.54,0.236
	l1.435-0.385l1.049-0.813l0.535-1.179 M204.055,232.142l29.049,21.727l1.369,0.708l1.457,0.191l1.413-0.257l1.113-0.682l0.579-1.137
	l0.086-1.263 M160.363,271.873v3.274l0.13,3.167l0.277,3.234l0.429,3.188l0.577,3.148l0.515,1.027l0.984,0.706l1.351,0.365
	l1.455,0.277l1.347-0.172l1.157-0.62l2.676-2.397l2.546-2.506l2.44-2.611l2.293-2.612l2.247-2.761l2.011-2.848l1.928-2.889
	l1.778-2.976l1.712-3.04l0.897-0.643l1.244,0.386l13.12,9.826l1.499,0.728l1.584,0.171l1.499-0.428l1.071-0.942l0.407-1.285
	 M139.815,259.157l0.942,0.984l1.371,0.514l1.646-0.022l16.656-2.955l1.391,0.214 M129.626,229.744l0.983,0.79l1.305,0.429
	l1.521-0.021l33.221-5.909 M131.101,197.998l0.88,0.92l1.413,0.428l1.541-0.042l36.456-6.485 M144.203,164.582l0.9,0.813
	l1.369,0.471l1.562-0.021l32.39-5.737 M179.501,127.205l0.9,0.942l1.349,0.471h1.646l8.972-1.604 M223.409,121.768l-7.193,20.145
	l-7.193,20.208l-14.493,40.673l-7.321,20.505l-3.66,10.232l-3.64,10.298l-14.75,41.335 M250.102,118.964l-26.693,2.804
	l-19.375-13.315"/>
<polyline fill="none" points="229.808,100.789 227.88,100.189 225.462,98.928 223.6,97.386 222.401,95.631 222.016,93.853 
	221.31,99.955 221.739,101.753 222.914,103.486 224.755,105.049 227.196,106.292 229.102,106.911 229.808,100.789 "/>
<polyline fill="none" stroke="#FFFFFF" stroke-width="0.57" stroke-linecap="round" stroke-linejoin="round" points="
	229.808,100.789 227.88,100.189 225.462,98.928 223.6,97.386 222.401,95.631 222.016,93.853 221.31,99.955 221.739,101.753 
	222.914,103.486 224.755,105.049 227.196,106.292 229.102,106.911 229.808,100.789 "/>
<path fill="none" stroke="#FFFFFF" stroke-width="0.57" stroke-linecap="round" stroke-linejoin="round" d="M279.985,102.288
	l3.853-1.713l3.426-1.97l2.825-2.312l2.249-2.569l1.561-2.718l0.922-2.912l0.235-3.039l-0.471-3.021l-1.177-2.997l-1.565-2.568
	 M291.716,77.626l0.127-1.155 M291.843,76.471l0.667-5.373 M273.735,98.048l3.596-0.813l3.382-1.09 M259.414,95.651v1.606
	l0.643,1.584l1.261,1.52l1.714,1.327l2.205,1.093l2.46,0.834l2.634,0.45l2.676,0.128 M271.317,84.328l2.161,0.214l2.612,0.642
	l2.334,0.942l1.99,1.219l1.521,1.456l0.919,1.521l0.366,1.626l-0.238,1.542l-0.876,1.434l-1.393,1.221l-0.728,6.143l1.393-1.262
	l0.876-1.393l0.238-1.584 M226.938,93.682l3.321,2.549l3.829,2.332l4.263,1.992l4.665,1.712l4.881,1.327l5.03,0.92l5.18,0.557
	l5.094,0.129l4.991-0.3l4.815-0.706l0.729-6.145l-2.676-0.127l-2.634-0.449l-2.46-0.813l-2.208-1.113l-1.712-1.327l-1.261-1.499
	l-0.643-1.606v-1.562l0.577-1.542l1.199-1.284 M282.511,98.072l0.729-6.103 M260.143,89.551l-0.729,6.25 M219.617,98.2l0.922-7.75
	l2.183,3.575l3.147,3.361l3.98,3.103l-0.941,8.029 M218.271,94.432l1.327,4.045 M218.185,90.385l0.385-2.675 M218.185,90.385
	l0.086,4.046 M219.598,98.477l2.504-5.5 M290.325,106.612l2.099-3.403l0.812-2.89 M228.908,108.518l5.224,2.997l5.864,2.461
	l6.465,1.863l6.723,1.133l5.673,0.386l1.157,0.065l6.679-0.299l0.942-8.029l5.757-0.877l5.288-1.456l4.731-1.97l-0.942,8.006
	l4.366-2.762l3.596-3.425 M218.57,87.71l0.257-2.098l0.619-5.631 M294.757,87.71l-1.521,12.501 M160.363,271.873l0.557-5.694
	 M179.501,127.205l0.321-6.014 M144.203,164.582l0.194-5.951 M270.118,191.083l0.576-4.773 M259.243,225.055l0.535-4.773
	 M131.101,197.998l0.216-5.931 M129.626,229.744l0.127-5.866 M139.815,259.157l0.299-6.057 M209.537,272.643l0.557-4.838
	 M239.121,251.428l0.491-3.554 M263.287,143.859l0.581-4.815 M222.016,93.853l0.149-0.748"/>
<path fill="none" stroke="#FFFFFF" stroke-width="0.57" stroke-linecap="round" stroke-linejoin="round" d="M223.515,83.129
	l1.839,2.27l2.293,2.14 M222.681,87.667l0.127,1.584 M246.484,83.215l-0.086,1.541l-0.748,1.477l-1.305,1.284l-1.842,1.028
	l-2.249,0.727l-2.482,0.365l-2.676-0.022l-2.676-0.343l-2.526-0.705l-2.247-1.028l-0.708,6.143l2.269,1.027l2.506,0.686l2.676,0.365
	h2.696l2.464-0.365l2.269-0.729l1.818-1.004l1.285-1.307l0.77-1.456l0.152-1.176 M232.504,63.82l-5.114,2.911l-2.848,2.29
	l-2.291,2.548l-1.606,2.741l-0.942,2.888l-0.257,3.019l0.429,3.018l1.155,3.04l1.778,2.977l0.707-6.123l-0.13-1.606l0.429-1.499
	l1.069-1.37l1.584-1.176l2.013-0.856l2.418-0.537l2.632-0.191l2.678,0.214l2.612,0.534l1.114,0.408 M245.843,89.723l0.599-5.052
	 M223.343,81.993l-0.684,6.102 M241.304,55.344l-2.568,0.577l-3.363,1.07 M232.119,67.288l0.343,1.584l0.922,1.519l1.519,1.456
	l1.969,1.221l2.335,0.92 M239.935,67.888l-2.354-0.942l-1.97-1.242l-1.542-1.413l-0.898-1.542l-0.343-1.583l0.233-1.542l0.922-1.393
	l1.391-1.241 M232.805,61.124l-0.707,6.143 M292.294,69.943l-1.839-2.249l-2.293-2.161 M274.763,81.908l1.626,0.6l2.612,0.557
	l2.696,0.193l2.592-0.17l2.398-0.557l2.011-0.836l1.584-1.176l1.047-1.37l0.385-1.521 M278.594,63.478h2.141l2.654,0.363
	l2.504,0.684l2.269,1.008 M292.294,69.943l0.191,1.583l-0.427,1.52l-1.047,1.349l-1.584,1.156l-2.014,0.877l-2.396,0.557
	l-2.612,0.17l-2.678-0.234l-2.609-0.514"/>
<polyline fill="none" points="250.638,38.86 249.952,45.002 250.381,46.78 251.58,48.513 253.439,50.077 255.88,51.319 
	258.686,52.196 261.683,52.646 264.68,52.624 267.483,52.153 269.882,51.211 271.68,49.949 272.793,48.384 273.156,46.629 
	273.885,40.487 273.52,42.22 272.408,43.783 270.588,45.068 268.212,45.987 265.408,46.458 262.411,46.481 259.414,46.03 
	256.588,45.154 254.148,43.912 252.265,42.349 251.065,40.635 250.638,38.86 "/>
<polyline fill="none" stroke="#FFFFFF" stroke-width="0.57" stroke-linecap="round" stroke-linejoin="round" points="250.638,38.86 
	249.952,45.002 250.381,46.78 251.58,48.513 253.439,50.077 255.88,51.319 258.686,52.196 261.683,52.646 264.68,52.624 
	267.483,52.153 269.882,51.211 271.68,49.949 272.793,48.384 273.156,46.629 273.885,40.487 273.52,42.22 272.408,43.783 
	270.588,45.068 268.212,45.987 265.408,46.458 262.411,46.481 259.414,46.03 256.588,45.154 254.148,43.912 252.265,42.349 
	251.065,40.635 250.638,38.86 "/>
<polyline fill="none" stroke="#FFFFFF" stroke-width="0.57" stroke-linecap="round" stroke-linejoin="round" points="250.638,38.86 
	251.023,37.104 252.157,35.541 253.955,34.279 256.353,33.357 259.135,32.866 262.132,32.866 265.151,33.294 267.935,34.193 
	270.375,35.412 272.259,36.976 273.458,38.708 273.885,40.487 "/>
<polyline fill="none" stroke="#FFFFFF" stroke-miterlimit="10" points="268.896,42.349 269.625,41.321 269.838,40.208 
	269.581,39.031 268.791,37.896 267.569,36.891 265.985,36.077 264.143,35.52 262.198,35.221 260.207,35.221 258.406,35.541 
	256.846,36.141 255.647,36.976 254.918,38.003 254.683,39.117 254.982,40.293 255.752,41.429 256.932,40.573 258.472,39.994 
	260.314,39.674 262.259,39.65 264.229,39.951 266.071,40.53 267.677,41.364 268.896,42.349 "/>
<path fill="none" stroke="#FFFFFF" stroke-width="0.57" stroke-linecap="round" stroke-linejoin="round" d="M261.918,86.726
	l-1.199,1.284l-0.577,1.542l-0.28,2.29h0.042 M249.611,90.065l-3.598-1.841l0.429-3.554l0.042-1.456l2.354,1.176l4.582,1.413
	l4.9,0.728 M257.464,91.841l-4.066-0.577 M253.398,91.264l-3.787-1.199 M259.905,91.841h-2.44 M272.045,36.696l5.778,4.732
	l1.97,2.803l0.728,2.934 M280.521,47.166l-0.579,2.827l-1.842,2.546l-2.975,2.12l-3.875,1.499l-4.558,0.77l-4.905,0.043
	l-4.942-0.727l-4.582-1.436l-3.981-2.055l-3.041-2.503l-1.95-2.826l-0.704-2.935l0.599-2.825l1.842-2.569l2.953-2.075l4.474-1.692
	 M242.589,44.531l-3.382,29.521l0.685,2.932l1.947,2.826l3.039,2.526l3.961,2.054l4.582,1.413l4.9,0.728l4.925-0.021l4.518-0.792
	l3.897-1.499l2.953-2.118l1.817-2.549l0.581-2.845l3.51-29.521"/>
</svg>
