<?xml version="1.0" encoding="utf-8"?>
<!-- Generator: Adobe Illustrator 15.1.0, SVG Export Plug-In . SVG Version: 6.00 Build 0)  -->
<!DOCTYPE svg PUBLIC "-//W3C//DTD SVG 1.1//EN" "http://www.w3.org/Graphics/SVG/1.1/DTD/svg11.dtd">
<svg version="1.1" id="Calque_1" xmlns="http://www.w3.org/2000/svg" xmlns:xlink="http://www.w3.org/1999/xlink" x="0px" y="0px"
	 width="500px" height="500px" viewBox="0 0 500 500" enable-background="new 0 0 500 500" xml:space="preserve">
<path fill="#FFFFFF" d="M484.593,147.229l-7.979-71.701c-0.054-0.489-0.198-0.965-0.438-1.402l-2.407-4.486l-0.345-10.296
	c-0.04-0.992-0.45-1.918-1.151-2.62l-7.676-7.57l-3.242-14.835c-0.172-0.834-0.622-1.575-1.27-2.118L448.12,22.038
	c-0.237-0.199-0.449-0.305-0.674-0.437c-0.014-0.013-0.014-0.026-0.026-0.04l-0.12-0.066c-0.079-0.04-0.185-0.106-0.29-0.146
	L416.77,5.456c-0.092-0.053-0.198,0.014-0.304-0.027c-0.225-0.106-0.423-0.278-0.675-0.331l-23.04-5.002
	c-0.503-0.133-1.072-0.12-1.588-0.014l-22.008,4.486c-0.477,0.093-0.926,0.278-1.323,0.543l-18.938,12.24
	c-0.463,0.305-0.86,0.688-1.165,1.151l-10.812,16.86c-0.331,0.516-0.529,1.111-0.582,1.72L333.9,62.189
	c-0.04,0.331-0.025,0.675,0.026,1.006l6.445,38.603l-2.832,15.96c-0.172,0.966,0.026,1.958,0.556,2.778l4.751,7.332
	c0.45,0.688,1.111,1.218,1.893,1.509l16.489,6.181c0.304,0.119,0.635,0.198,0.966,0.225l16.859,1.681
	c0.874,0.093,1.787-0.132,2.528-0.622l9.277-6.18c0.886-0.595,1.495-1.535,1.667-2.594l1.826-11.275l4.711-9.501l6.008,54.562
	l-1.495,25.277l-4.844,7.847l-22.458,8.536l-2.765-0.542c-1.403-0.278-2.846,0.238-3.745,1.336l-5.427,6.63l-13.353-3.189
	c-0.636-0.132-1.283-0.106-1.905,0.026l-11.063,2.978c-0.384,0.106-0.741,0.265-1.072,0.477l-14.199,9.105l-6.26-1.046
	c-0.437-0.08-0.887-0.053-1.351,0.013l-19.824,3.732c-0.186,0.04-0.331,0.199-0.516,0.265c-0.225,0.066-0.371,0.186-0.582,0.304
	c-0.278,0.146-0.596,0.199-0.82,0.41l-2.355,2.184l-25.966-6.947c-0.384-0.106-0.794-0.186-1.19-0.12l-32.066,1.8
	c-0.397,0.014-0.781,0.093-1.138,0.238l-22.392,8.364c-0.463,0.158-0.874,0.423-1.244,0.741l-14.676,13.26
	c-0.676,0.622-1.125,1.468-1.231,2.382l-1.31,10.203l-62.053,11.659l-56.773,22.219l-49.825,31.271
	c-0.953,0.596-1.601,1.575-1.76,2.687l-1.84,12.003l-2.567,23.569c-0.04,0.357-0.026,0.701,0.027,1.059l5.148,31.152
	c0.106,0.608,0.344,1.191,0.728,1.681l21.306,28.32l17.244,16.078c0.278,0.278,0.609,0.49,0.953,0.662l7.477,3.6
	c1.509,0.701,3.295,0.397,4.473-0.807l2.833-2.951c0.82-0.86,1.191-2.038,1.032-3.216l-4.566-32.396l0.662-4.552l39.331,14.146
	l19.572,2.714c1.125,0.172,2.276-0.198,3.11-0.953c0.847-0.768,1.323-1.865,1.283-3.004L134.388,376l19.361,7.623l12.889,11.513
	c0.662,0.583,1.508,0.94,2.396,0.979l3.229,0.146c1.562-0.08,3.216-0.953,3.798-2.527l0.701-1.92l7.491-3.163l6.141-1.667
	c-0.146,0.146-0.278,0.291-0.41,0.45l-2.369,3.03l0,0l0,0l-1.747,2.236c-0.477,0.622-0.768,1.377-0.808,2.157l-1.376,23.172
	l-4.579,0.715l-22.656,8.219l-1.363,0.728c-0.675,0.198-1.231,0.41-1.694,0.913l-3.64,1.959c-1.059,0.568-1.8,1.601-1.985,2.792
	l-3.229,20.34c-0.106,0.688-0.04,1.39,0.225,2.025l8.497,21.505c0.343,0.886,1.005,1.614,1.866,2.038l20.341,10.163
	c0.357,0.185,0.741,0.305,1.138,0.357L243.778,500l43.116-3.083c0.489-0.04,0.965-0.159,1.402-0.37l20.737-10.045
	c0.357-0.172,0.675-0.397,0.967-0.675l22.166-20.936l28.439-37.398l16.277-32.025l5.121-21.307l20.697-17.998
	c0.795-0.702,1.271-1.694,1.323-2.753l0.53-13.021l7.41-0.146c0.795-0.014,1.575-0.278,2.21-0.755l11.845-8.747
	c0.927-0.688,1.495-1.733,1.562-2.872l0.49-7.834l0.675-1.945l6.074-0.648c0.701-0.066,1.376-0.344,1.945-0.78l8.893-6.829
	c0.741-0.569,1.258-1.391,1.43-2.316l3.374-17.217l2.436-2.355l5.042-1.549c0.543-0.172,1.032-0.449,1.455-0.833l15.193-13.776
	c0.702-0.636,1.138-1.496,1.243-2.436l9.185-83.491L484.593,147.229z M463.194,58.629l2.554,2.514l0.292,8.443l-3.375,5.228
	l-15.14,14.266l-8.55,3.136c0.08-0.053,0.16-0.105,0.226-0.172l14.16-11.844c0.463-0.383,0.82-0.874,1.059-1.416L463.194,58.629z
	 M457.106,51.073l-1.125,4.923l-8.271,18.858L434.967,85.52l-11.223,2.554l-5.267-1.244l2.699-3.48l3.044-1.045
	c0.675-0.238,1.283-0.648,1.733-1.205l11.447-14.028c0.317-0.396,0.569-0.859,0.716-1.336l7.344-24.588
	c0.159-0.556,0.198-1.139,0.106-1.707l-1.629-10.561l0.305-0.014l9.846,8.377L457.106,51.073z M436.767,93.037l-6.472,2.368
	l-4.937,0.226L436.767,93.037z M422.646,95.763l-5.479,0.238l-4.5-2.117l0.384-0.397L422.646,95.763z M432.677,29.131l3.468-0.079
	l1.667,10.72l-6.881,23.013l-3.203,3.93l6.127-20.287c0.146-0.463,0.199-0.953,0.159-1.43L432.677,29.131z M430.374,21.455
	l-0.158-0.211l0.397,0.211H430.374z M363.465,128.146l-14.822-5.544l-3.242-4.99l0.662-3.691l1.614,0.926
	c0.345,0.198,0.728,0.343,1.125,0.423l20.194,4.168l-1.164,3.203c-0.424,1.151-0.265,2.435,0.41,3.454l1.786,2.713L363.465,128.146z
	 M371.656,112.106l-20.697-4.274l-3.467-1.985l0.595-3.348c0.079-0.437,0.079-0.874,0.014-1.31l-6.472-38.761l2.303-23.675
	l9.859-15.364l17.614-11.395l20.499-4.182l21.333,4.632l6.061,5.002l-4.605,3.268l-17.045,3.547
	c-0.317,0.066-0.636,0.159-0.927,0.304c-0.291,0.132-0.568,0.305-0.819,0.516l-18.475,14.624c-0.424,0.344-0.781,0.767-1.032,1.244
	l-9.383,18.024c-0.265,0.503-0.41,1.072-0.438,1.641l-0.78,20.089c-0.013,0.384,0.04,0.78,0.133,1.151l7.146,26.375L371.656,112.106
	z M394.524,99.071l-7.345,14.808c-0.172,0.345-0.291,0.715-0.357,1.099l-1.654,10.189l-5.743,3.825l-3.666-5.531l4.989-13.737
	c0.277-0.754,0.305-1.562,0.106-2.329l-7.319-26.984l0.729-18.633l8.602-16.529l17.177-13.591l17.02-3.546
	c0.516-0.105,1.006-0.331,1.442-0.635l4.394-3.11l1.826,2.422l1.535,18.117l-6.869,22.723c-0.079,0.252,0.094,0.477,0.067,0.728
	l-3.997,9.767l-6.644,8.588l-5.412,5.783v0.013c-0.014,0.014-0.026,0-0.04,0.014l-3.375,3.705l-3.043,0.847
	C395.888,97.364,395.001,98.092,394.524,99.071z M450.45,265.485l-3.203,1.721c-0.556,0.304-1.045,0.755-1.389,1.283l-0.927,1.403
	l-9.635-26.455l0.953-0.304c0.517-0.172,0.993-0.45,1.39-0.807l1.191-1.073L450.45,265.485z M448.849,281.353l-0.688-2.276
	l3.627-5.531l0.37-0.212l0.543,6.591l-2.951,0.899C449.404,280.93,449.141,281.168,448.849,281.353z M395.212,322.285
	l-21.518,14.729l-1.521-5.346l-3.745-19.56c-0.093-0.45-0.252-0.874-0.49-1.271l-14.584-24.006l-5.941-6.657l19.295-7.477
	l1.642,0.384l3.03,1.721l23.74,46.608L395.212,322.285z M213.235,364.924l-1.826-14.967c-0.053-0.397-0.159-0.781-0.331-1.151
	l-2.832-6.181c-0.159-0.357-0.384-0.701-0.661-0.992l-2.806-3.058c-0.067-0.079-0.146-0.158-0.239-0.238v-0.013
	c-0.198-0.173-0.41-0.331-0.635-0.477c-0.608-0.371-1.429-0.543-2.091-0.556h-0.013c-0.12,0-0.238,0.013-0.357,0.026l-9.356,1.032
	c-0.715,0.079-1.39,0.357-1.959,0.807l-11.341,8.986l-3.27,3.745l-0.688-1.495l-1.985-42.904l1.072-3.705l27.103,17.76l3.996,2.713
	c0.292,0.198,0.596,0.357,0.927,0.463l26.454,8.999c0.106,0.039,0.212,0.066,0.318,0.093c0.132,0.039,0.264,0.065,0.384,0.079
	l17.31,3.083c0.225,0.04,0.45,0.066,0.676,0.066c0.438,0,0.874-0.079,1.297-0.225l24.681-8.933l30.901-20.83l22.18-16.304
	l-11.58,22.285l-13.286,15.774l-21.241,10.984l-62.569,19.943c-0.331,0.105-0.635,0.251-0.926,0.437L213.235,364.924z
	 M215.114,379.15l12.89-3.335l51.706,3.996l4.777,2.991l0.132,1.574l-8.245,4.831l-36.089,1.15l-29.657-3.109l2.806-8.046
	C213.989,379.296,214.558,379.296,215.114,379.15z M192.55,398.948l17.548,13.088c0.106,0.093,0.225,0.172,0.357,0.251
	c0.133,0.08,0.265,0.146,0.396,0.212l1.694,0.821l-21.055,3.44L192.55,398.948z M202.859,379.785l0.821-19.414l0.583-5.24
	l2.051,16.847c0.013,0.093,0.027,0.172,0.04,0.251c0.106,0.636,0.371,1.204,0.741,1.681l-2.911,8.352L202.859,379.785z
	 M381.462,264.6l-6.907,3.109l-2.872-1.628c-0.317-0.186-0.661-0.318-1.032-0.397l-65.89-24.297l-7.187-9.793L381.462,264.6z
	 M384.665,271.851c0.424-0.172,0.808-0.423,1.151-0.741l0.331-0.304l19.665,39.661l-5.545,4.05l-20.657-40.549L384.665,271.851z
	 M191.545,272.499l4.75,28.704c0,0.04,0.013,0.066,0.013,0.106c0,0,0,0,0,0.013c0.106,0.543,0.331,1.046,0.622,1.469
	c0.292,0.424,0.662,0.794,1.125,1.072c0.026,0.027,0.066,0.04,0.093,0.066l16.78,9.979c0.211,0.133,0.423,0.237,0.648,0.331
	c0.252,0.105,0.517,0.171,0.781,0.211l25.131,4.751c0.238,0.04,0.476,0.066,0.714,0.066c0.172,0,0.344-0.013,0.53-0.04l27.301-3.731
	c0.331-0.04,0.649-0.133,0.966-0.265l17.88-7.478c0.462-0.198,0.886-0.476,1.243-0.834l14.821-14.927
	c0.504-0.517,0.861-1.152,1.021-1.854l2.422-10.48c0.052-0.199,0.092-0.424,0.104-0.636c0.015-0.225,0.015-0.45,0-0.674
	l-1.905-28.017l49.058,18.368l-16.211,6.286c-0.133,0.053-0.198,0.172-0.317,0.238c-0.371,0.186-0.676,0.424-0.967,0.715
	c-0.186,0.198-0.37,0.356-0.516,0.582c-0.066,0.105-0.186,0.172-0.238,0.278l-0.675,1.296c-1.099-0.264-2.276-0.105-3.216,0.596
	l-29.988,22.048l-29.908,20.301l-22.855,8.151l-16.079-2.858l-25.752-8.761l-32.754-21.544l2.687-9.25l12.029-13.909
	L191.545,272.499z M402.968,322.1l5.346-3.892l-0.237,14.412l-3.892,0.106L402.968,322.1z M412.946,307.477l-21.28-42.904
	l8.376-5.188l0.993,0.317l18.646,44.267L412.946,307.477z M333.08,222.873l74.466,28.254l-3.719,1.363l-71.872-28.903
	L333.08,222.873z M425.849,298.716l-16.807-39.914l2.885-1.045c0.278-0.093,0.542-0.238,0.794-0.397l16.25,37.955L425.849,298.716z
	 M418.252,250.677l9.251-6.088l12.771,35.083l2.355,7.875l-5.89,3.148l-1.15,0.451L418.252,250.677z M436.211,233.222l-3.124,2.806
	l-2.553,0.833l-1.231-0.556l0,0c-0.053-0.027-0.106-0.04-0.159-0.067l-57.011-22.629l2.144-2.62l1.324,0.265l60.61,20.525V233.222z
	 M350.139,215.489l14.518,3.467l54.748,21.729l-6.445,4.235l-71.436-27.116L350.139,215.489z M315.889,227.015l6.657,1.112
	l68.484,27.765l-4.129,2.554l-76.98-30.305L315.889,227.015z M211.673,236.503l21.161-7.9l30.875-1.733l22.259,5.822l3.692,1.165
	l8.747,11.938l-0.397,9.991l-5.028,5.531l-17.058,11.275l-30.293,4.791l-28.796-3.692l-17.985-10.627l-1.614-4.155l1.377-10.6
	L211.673,236.503z M74.453,296.862l55.436-21.689l60.24-11.249l0.066,0.463l-3.706,2.092c-0.384,0.211-0.728,0.503-1.019,0.833
	l-13.009,15.047c-0.357,0.424-0.635,0.914-0.78,1.456l-6.432,22.14c-0.119,0.397-0.172,0.82-0.159,1.244l1.614,34.792
	l-26.983-28.837c-0.411-0.45-0.94-0.794-1.509-1.006l-17.508-6.299c-0.794-0.278-1.654-0.278-2.461-0.053l-13.645,4.234
	c-1.112,0.344-2.012,1.178-2.436,2.264l-2.712,6.828c-0.265,0.648-0.344,1.363-0.225,2.051l1.165,7.08
	c0.093,0.556,0.291,1.072,0.609,1.536l16.225,24.125l-35.612-3.68l-13.141-2.461c-1.906-0.331-3.838,0.78-4.407,2.673l-2.435,7.979
	c-0.105,0.357-0.172,0.729-0.172,1.112l-0.132,26.4c0,0.675,0.171,1.351,0.516,1.933l3.321,5.797l-0.211,1.481l-6.882-5.955
	l-20.684-25.819l-10.693-25.594l-1.257-2.17l1.336-8.748L74.453,296.862z M64.289,431.768l-16.356-15.166l-20.288-27.063
	l-4.909-29.696l0.939-8.642l6.802,15.643c0.133,0.331,0.318,0.648,0.543,0.926l21.2,26.468c0.08,0.105,0.172,0.212,0.265,0.318
	c0.106,0.105,0.212,0.198,0.317,0.304l11.329,9.807l4.089,28.995L64.289,431.768z M113.492,404.85l-41.659-15.086l-2.779-4.831
	l0.132-24.799l1.257-4.13L80.5,357.87l42.335,4.38l1.905,2.832l1.733,5.758l1.257,35.916L113.492,404.85z M158.381,377.403
	c-0.331-0.305-0.728-0.542-1.151-0.715l-23.741-9.356l-1.522-5.028c-0.105-0.37-0.278-0.728-0.49-1.045l-23.595-35.083l-0.861-5.188
	l1.641-4.128l10.64-3.296l15.418,5.545l27.645,29.524l5.453,5.003l2.792,6.074l-0.728,27.963L158.381,377.403z M181.752,381.36
	l-4.01,1.681l0.582-22.644l5.757-6.683l9.952-7.808l3.507-0.384l-1.562,14.266l-0.768,17.893L181.752,381.36z M180.984,426.209
	l6.948-1.032c0.013,0,0.013-0.013,0.013-0.013c0.014,0,0.027,0,0.04,0l37.795-6.167c0.093-0.014,0.186-0.04,0.279-0.054
	c0.542-0.119,1.032-0.356,1.456-0.675c0.437-0.317,0.807-0.728,1.072-1.218c0.211-0.369,0.357-0.78,0.424-1.204c0,0,0,0,0.013-0.013
	c0.093-0.516,0.066-1.059-0.053-1.562c-0.132-0.529-0.358-0.992-0.662-1.403c0-0.013,0-0.013,0-0.013
	c-0.318-0.424-0.729-0.794-1.218-1.059c-0.08-0.039-0.158-0.079-0.238-0.119l-12.374-6.009l-15.907-11.856l4.685,0.119l0.833,0.291
	c0.041,0.013,0.067-0.014,0.106,0c0.12,0.039,0.212,0.105,0.332,0.132c0.185,0.039,0.37,0.066,0.542,0.079l34.938,3.627
	l37.597-1.165c0.648-0.026,1.271-0.212,1.84-0.529l11.196-6.563c1.283-0.755,2.024-2.184,1.893-3.666l-0.517-5.915
	c-0.105-1.218-0.781-2.304-1.799-2.938l-7.213-4.513c-0.529-0.331-1.139-0.529-1.748-0.583l-53.292-4.128
	c-0.437-0.054-0.847,0-1.27,0.105l-7.107,1.839l4.725-3.069l62.675-20.036l22.524-11.593c0.45-0.225,0.848-0.542,1.178-0.939
	l14.253-17.059l16.728-32.013l5.491,6.102l13.804,22.842l3.692,19.215l2.938,10.31v3.784l-14.253,27.42L331.399,403.5
	l-27.062,19.705l-21.24,7.979l-33.747,2.264l-55.78-0.848l-21.624-3.096L180.984,426.209z M354.096,423.391l-27.646,36.353
	l-21.306,20.062l-19.548,9.463l-41.514,3.069l-65.706-10.097l-18.487-9.225l-7.557-19.148l2.766-17.416l2.263-1.23l35.599,5.068
	l56.574,0.873l34.633-2.315c0.384-0.026,0.754-0.106,1.111-0.238l22.272-8.363c0.318-0.119,0.636-0.292,0.914-0.49l27.936-20.34
	c0.292-0.212,0.557-0.478,0.781-0.768l22.644-29.538l10.665-20.42l4.05,13.498l-4.856,20.619L354.096,423.391z M380.523,365.215
	l-5.201-17.297v-2.659l20.883-14.292l0.728,6.431l-0.556,14.028L380.523,365.215z M420.396,319.029l-0.41,6.563l-4.116,3.044
	l0.226-14.094l5.492-2.858l0.37,2.461l-1.35,3.852C420.489,318.328,420.41,318.672,420.396,319.029z M436.66,307l0.543-8.205
	l4.129-2.051l-1.535,7.86L436.66,307z M468.315,267.047l-8.311,7.53l-0.636-7.688c-0.026-0.489-0.145-0.979-0.37-1.442
	l-15.061-31.377v-2.501l13.963-5.929c0.356-0.145,0.701-0.357,1.005-0.608c0.371-0.305,0.662-0.662,0.887-1.059l8.722-15.021
	c1.071-1.852,0.449-4.208-1.391-5.28c-1.878-1.085-4.221-0.463-5.279,1.39l-8.112,13.948l-13.83,5.875l-51.876-17.575l14.676-5.571
	c0.795-0.304,1.47-0.86,1.906-1.588l6.048-9.793c0.345-0.542,0.529-1.165,0.568-1.799l1.536-26.905l-6.617-60.703l1.02-1.112
	l7.583,3.56c0.556,0.252,1.203,0.345,1.812,0.371l14.676-0.662c0.397-0.026,0.795-0.106,1.165-0.238l18.541-6.816
	c0.488-0.185,0.939-0.463,1.31-0.82l16.277-15.47l0.675-1.019l7.688,68.948l0.424,37.782L468.315,267.047z"/>
</svg>
